<svg width="60" height="61" viewBox="0 0 60 61" fill="none" xmlns="http://www.w3.org/2000/svg">
<path d="M30 60C46.5685 60 60 46.5685 60 30C60 13.4315 46.5685 0 30 0C13.4315 0 0 13.4315 0 30C0 46.5685 13.4315 60 30 60Z" fill="#578DB1"/>
<path d="M41.115 49.1776C39.369 48.0505 37.2825 47.5726 35.22 47.8275L22.155 49.4476C20.4375 49.6633 18.8454 50.4601 17.6434 51.7058C16.4414 52.9515 15.7018 54.5709 15.5475 56.2951C19.975 58.7301 24.947 60.0047 30 60C34.7901 60.0035 39.5107 58.8536 43.7625 56.6475V54.0376C43.7607 53.0711 43.5175 52.1204 43.0552 51.2717C42.5929 50.4231 41.926 49.7032 41.115 49.1776Z" fill="#CDE6ED" stroke="black" stroke-width="0.83" stroke-linecap="round" stroke-linejoin="round"/>
<path d="M29.9775 51.3075H30.81C32.685 51.3075 33.555 49.8075 33.555 47.955V45.8175C33.555 45.5927 33.4657 45.3772 33.3068 45.2182C33.1479 45.0593 32.9323 44.97 32.7075 44.97H27.8625C27.6378 44.97 27.4222 45.0593 27.2632 45.2182C27.1043 45.3772 27.015 45.5927 27.015 45.8175V48.2025C27.001 48.602 27.067 49.0004 27.2091 49.3741C27.3512 49.7478 27.5666 50.0893 27.8426 50.3786C28.1186 50.6679 28.4497 50.8991 28.8163 51.0586C29.1829 51.2182 29.5777 51.3027 29.9775 51.3075Z" fill="white" stroke="black" stroke-width="0.83" stroke-linecap="round" stroke-linejoin="round"/>
<path d="M33.975 51.3075C33.975 51.3075 32.5725 49.74 32.0775 50.205C31.7247 50.6878 31.5025 51.2536 31.4325 51.8475C31.2268 51.3526 30.9173 50.9076 30.525 50.5425L30.0075 50.3625L28.8525 51.8625" fill="#CDE6ED"/>
<path d="M33.975 51.3075C33.975 51.3075 32.5725 49.74 32.0775 50.205C31.7247 50.6878 31.5025 51.2536 31.4325 51.8475C31.2268 51.3526 30.9173 50.9076 30.525 50.5425L30.0075 50.3625L28.8525 51.8625" stroke="black" stroke-width="0.83" stroke-linecap="round" stroke-linejoin="round"/>
<path d="M32.0775 50.19C32.4501 49.9994 32.7771 49.7305 33.036 49.4017C33.2949 49.0729 33.4796 48.6919 33.5775 48.285C33.9 46.9125 35.2425 47.8275 35.2425 47.8275C35.2425 47.8275 35.9925 47.985 35.7675 49.725C35.5964 50.7917 35.1491 51.7949 34.47 52.635C34.47 52.635 33.2925 49.8075 32.0775 50.19Z" fill="#CDE6ED" stroke="black" stroke-width="0.83" stroke-linecap="round" stroke-linejoin="round"/>
<path d="M26.865 48.5925C28.0055 49.3778 29.2339 50.0272 30.525 50.5275C30.525 50.5275 29.2875 50.625 29.1525 53.205C29.1525 53.205 26.1525 51.2625 25.575 50.0925C25.575 50.0925 25.2375 49.4325 25.575 49.0275C25.9125 48.6225 26.28 48.21 26.865 48.5925Z" fill="#CDE6ED" stroke="black" stroke-width="0.83" stroke-linecap="round" stroke-linejoin="round"/>
<path d="M45.2025 37.8674C45.2025 37.8674 44.25 40.9875 44.5875 42.525C44.925 44.0625 45.675 46.4099 42.855 46.6724C40.035 46.9349 36.855 47.5275 36.855 47.5275L45.2025 37.8674Z" fill="#212020" stroke="black" stroke-width="0.83" stroke-linecap="round" stroke-linejoin="round"/>
<path d="M31.0199 48.84C38.6324 48.9825 45.5325 42.6525 45.5325 34.785V29.535C45.5325 21.645 39.2925 15.0825 31.665 14.94L30.1274 16.5375C22.5149 16.395 16.3049 21.0975 16.3049 28.965V34.215C16.3049 42.0975 23.3924 48.6974 31.0199 48.84Z" fill="white" stroke="black" stroke-width="0.83" stroke-linecap="round" stroke-linejoin="round"/>
<path d="M20.8875 43.5525C20.8875 43.5525 18.9375 40.1625 19.77 37.05C19.77 37.05 19.8375 31.2824 20.52 31.5749C20.9005 31.7643 21.2332 32.0376 21.493 32.374C21.7528 32.7105 21.933 33.1014 22.02 33.5175C22.1527 34.5619 22.2004 35.6153 22.1625 36.6675C22.2881 36.1763 22.4799 35.7045 22.7325 35.265C23.2575 34.2075 24.015 32.0775 24.015 32.0775C24.0126 32.5634 23.9649 33.048 23.8725 33.525C27.66 31.7775 27.3225 28.59 27.3225 28.59C27.6022 29.4868 28.1556 30.2735 28.905 30.84C30.105 31.68 34.65 31.1625 34.65 31.1625C34.3593 30.7592 34.1643 30.2949 34.08 29.805C35.2725 31.83 39.4875 31.1625 39.4875 31.1625C39.3356 31.026 39.2248 30.8496 39.1678 30.6535C39.1109 30.4573 39.1099 30.2492 39.165 30.0525C39.8475 30.7425 42.57 30.9375 42.57 30.9375C42.105 30.645 41.265 27.4725 41.265 27.4725C41.265 27.4725 43.035 30.3975 44.3775 30.7425C45.72 31.0875 45.54 31.845 45.54 31.845C45.8673 31.5034 46.1113 31.0908 46.2531 30.6394C46.3949 30.188 46.4306 29.7099 46.3575 29.2425C44.8575 9.80996 26.5875 13.5825 26.5875 13.5825C16.005 16.2225 12.54 23.6175 13.4625 32.3325C13.5094 34.0409 13.4693 35.7506 13.3425 37.455C13.14 39.1275 12.3375 42.4575 13.275 43.5375C14.2125 44.6175 14.6025 47.2875 19.3575 47.7675C24.1125 48.2475 26.0475 47.835 26.0475 47.835C26.0475 47.835 22.5375 46.5525 20.8875 43.5525Z" fill="#212020" stroke="black" stroke-width="0.83" stroke-linecap="round" stroke-linejoin="round"/>
<path d="M21.8325 32.835C21.5327 32.2946 21.0807 31.8543 20.5326 31.5689C19.9845 31.2835 19.3646 31.1656 18.75 31.23C16.9875 31.5225 15.855 33.6 16.2075 35.8725C16.56 38.145 18.2775 39.7424 20.0325 39.4499C20.7138 39.3262 21.3239 38.9516 21.7425 38.4" fill="white"/>
<path d="M21.8325 32.835C21.5327 32.2946 21.0807 31.8543 20.5326 31.5689C19.9845 31.2835 19.3646 31.1656 18.75 31.23C16.9875 31.5225 15.855 33.6 16.2075 35.8725C16.56 38.145 18.2775 39.7424 20.0325 39.4499C20.7138 39.3262 21.3239 38.9516 21.7425 38.4" stroke="black" stroke-width="0.83" stroke-linecap="round" stroke-linejoin="round"/>
<path d="M40.92 37.0574C41.2574 37.017 41.5683 36.8542 41.7936 36.5999C42.0189 36.3455 42.1431 36.0173 42.1425 35.6775V33.7349C42.1428 33.5386 42.1015 33.3444 42.0212 33.1653C41.941 32.9861 41.8236 32.826 41.6768 32.6956C41.5301 32.5652 41.3573 32.4673 41.17 32.4086C40.9826 32.3499 40.7849 32.3316 40.59 32.3549C40.2519 32.3952 39.9402 32.5578 39.7136 32.812C39.487 33.0662 39.3613 33.3944 39.36 33.7349V35.6775C39.3607 35.8741 39.4031 36.0684 39.4842 36.2476C39.5653 36.4267 39.6834 36.5867 39.8307 36.717C39.978 36.8474 40.1512 36.9451 40.339 37.0038C40.5267 37.0624 40.7247 37.0807 40.92 37.0574Z" fill="black"/>
<path d="M32.25 37.8599C32.5874 37.8195 32.8983 37.6567 33.1236 37.4023C33.3489 37.148 33.4731 36.8197 33.4725 36.4799V34.5375C33.4729 34.3411 33.4315 34.147 33.3513 33.9678C33.271 33.7886 33.1536 33.6285 33.0068 33.4981C32.8601 33.3676 32.6873 33.2698 32.5 33.2111C32.3127 33.1524 32.115 33.1341 31.92 33.1575C31.5826 33.1979 31.2718 33.3607 31.0464 33.6151C30.8211 33.8694 30.6969 34.1976 30.6975 34.5375V36.4799C30.6972 36.6763 30.7385 36.8705 30.8188 37.0497C30.8991 37.2288 31.0165 37.3889 31.1632 37.5193C31.31 37.6498 31.4827 37.7475 31.6701 37.8063C31.8574 37.865 32.0551 37.8832 32.25 37.8599Z" fill="black"/>
<path d="M41.1224 53.5575L38.7749 58.6725C41.1672 57.9436 43.4578 56.9155 45.5924 55.6125L41.1224 53.5575Z" fill="#B2B2B2" stroke="black" stroke-width="0.59" stroke-linecap="round" stroke-linejoin="round"/>
<path d="M41.6324 54.69L44.7674 56.1226C45.0524 55.9651 45.3449 55.8 45.6224 55.6275L41.1224 53.5725L41.6324 54.69Z" fill="#B2B2B2" stroke="black" stroke-width="0.59" stroke-linecap="round" stroke-linejoin="round"/>
<path d="M41.6325 54.69L39.975 58.305C41.6332 57.719 43.2369 56.9888 44.7675 56.1226L41.6325 54.69Z" fill="white" stroke="black" stroke-width="0.59" stroke-linecap="round" stroke-linejoin="round"/>
<path d="M42.1088 55.9102L41.6525 56.9055L42.6479 57.3619L43.1042 56.3665L42.1088 55.9102Z" fill="white" stroke="black" stroke-width="0.45" stroke-linecap="round" stroke-linejoin="round"/>
<path d="M17.9625 52.1325C17.1855 52.4781 16.5162 53.0271 16.0251 53.7214C15.5341 54.4157 15.2395 55.2297 15.1725 56.0775C18.683 58.0904 22.5672 59.3664 26.5875 59.8275L24.225 54.5775C23.9175 53.883 23.4466 53.2732 22.8525 52.8" fill="#CDE6ED"/>
<path d="M17.9625 52.1325C17.1855 52.4781 16.5162 53.0271 16.0251 53.7214C15.5341 54.4157 15.2395 55.2297 15.1725 56.0775C18.683 58.0904 22.5672 59.3664 26.5875 59.8275L24.225 54.5775C23.9175 53.883 23.4466 53.2732 22.8525 52.8" stroke="black" stroke-width="0.83" stroke-linecap="round" stroke-linejoin="round"/>
<rect x="59.5" y="59.5" width="59" height="59" rx="29.5" transform="rotate(-180 59.5 59.5)" stroke="black" stroke-linecap="round" stroke-linejoin="round"/>
</svg>
