<svg width="1920" height="301" viewBox="0 0 1920 301" fill="none" xmlns="http://www.w3.org/2000/svg">
<g clip-path="url(#clip0_10_708)">
<path d="M2239 0.549072H-321V300H2239V0.549072Z" fill="#0E162F" stroke="black" stroke-linecap="round" stroke-linejoin="round"/>
<g opacity="0.7">
<path opacity="0.24" d="M1954.33 218.979C1996.64 218.979 2030.93 184.746 2030.93 142.519C2030.93 100.291 1996.64 66.059 1954.33 66.059C1912.03 66.059 1877.73 100.291 1877.73 142.519C1877.73 184.746 1912.03 218.979 1954.33 218.979Z" fill="url(#paint0_radial_10_708)"/>
<path opacity="0.06" d="M1845.11 164.588C1849.5 164.588 1853.06 161.035 1853.06 156.653C1853.06 152.27 1849.5 148.717 1845.11 148.717C1840.72 148.717 1837.16 152.27 1837.16 156.653C1837.16 161.035 1840.72 164.588 1845.11 164.588Z" fill="white"/>
<path opacity="0.21" d="M1384.06 191.299C1389.86 191.299 1394.56 186.607 1394.56 180.819C1394.56 175.03 1389.86 170.338 1384.06 170.338C1378.26 170.338 1373.56 175.03 1373.56 180.819C1373.56 186.607 1378.26 191.299 1384.06 191.299Z" fill="white"/>
<path opacity="0.21" d="M1525.02 136.43C1530.82 136.43 1535.52 131.737 1535.52 125.949C1535.52 120.161 1530.82 115.468 1525.02 115.468C1519.22 115.468 1514.52 120.161 1514.52 125.949C1514.52 131.737 1519.22 136.43 1525.02 136.43Z" fill="white"/>
<path opacity="0.1" d="M1861.94 136.16C1863.92 136.16 1865.52 134.56 1865.52 132.587C1865.52 130.613 1863.92 129.013 1861.94 129.013C1859.96 129.013 1858.36 130.613 1858.36 132.587C1858.36 134.56 1859.96 136.16 1861.94 136.16Z" fill="white"/>
<path opacity="0.01" d="M1344.59 140.782C1350.33 140.782 1354.98 136.139 1354.98 130.411C1354.98 124.683 1350.33 120.04 1344.59 120.04C1338.85 120.04 1334.2 124.683 1334.2 130.411C1334.2 136.139 1338.85 140.782 1344.59 140.782Z" fill="white"/>
<path opacity="0.08" d="M1805.53 170.108C1816.78 170.108 1825.9 161.005 1825.9 149.775C1825.9 138.546 1816.78 129.443 1805.53 129.443C1794.28 129.443 1785.16 138.546 1785.16 149.775C1785.16 161.005 1794.28 170.108 1805.53 170.108Z" fill="white"/>
<path opacity="0.5" d="M1860.11 130.191C1860.98 130.191 1861.69 129.485 1861.69 128.614C1861.69 127.743 1860.98 127.037 1860.11 127.037C1859.24 127.037 1858.53 127.743 1858.53 128.614C1858.53 129.485 1859.24 130.191 1860.11 130.191Z" fill="white"/>
<path d="M1537.42 78.576C1537.88 78.576 1538.25 78.205 1538.25 77.7475C1538.25 77.2899 1537.88 76.919 1537.42 76.919C1536.96 76.919 1536.59 77.2899 1536.59 77.7475C1536.59 78.205 1536.96 78.576 1537.42 78.576Z" fill="white"/>
<path opacity="0.4" d="M1365.92 154.108C1368.11 154.108 1369.89 152.333 1369.89 150.145C1369.89 147.956 1368.11 146.182 1365.92 146.182C1363.73 146.182 1361.95 147.956 1361.95 150.145C1361.95 152.333 1363.73 154.108 1365.92 154.108Z" fill="white"/>
<path d="M1181.64 135.252C1182.1 135.252 1182.47 134.881 1182.47 134.424C1182.47 133.966 1182.1 133.595 1181.64 133.595C1181.18 133.595 1180.81 133.966 1180.81 134.424C1180.81 134.881 1181.18 135.252 1181.64 135.252Z" fill="white"/>
<path d="M1260.41 78.7557C1260.87 78.7557 1261.24 78.3847 1261.24 77.9272C1261.24 77.4696 1260.87 77.0987 1260.41 77.0987C1259.95 77.0987 1259.58 77.4696 1259.58 77.9272C1259.58 78.3847 1259.95 78.7557 1260.41 78.7557Z" fill="white"/>
<path opacity="0.06" d="M1021.72 154.806C1026.11 154.806 1029.67 151.253 1029.67 146.871C1029.67 142.488 1026.11 138.935 1021.72 138.935C1017.33 138.935 1013.77 142.488 1013.77 146.871C1013.77 151.253 1017.33 154.806 1021.72 154.806Z" fill="white"/>
<path opacity="0.05" d="M153.09 191.489C158.889 191.489 163.59 186.797 163.59 181.008C163.59 175.22 158.889 170.527 153.09 170.527C147.291 170.527 142.59 175.22 142.59 181.008C142.59 186.797 147.291 191.489 153.09 191.489Z" fill="white"/>
<path opacity="0.1" d="M1459.28 75.5715C1461.26 75.5715 1462.86 73.9716 1462.86 71.9981C1462.86 70.0245 1461.26 68.4246 1459.28 68.4246C1457.3 68.4246 1455.7 70.0245 1455.7 71.9981C1455.7 73.9716 1457.3 75.5715 1459.28 75.5715Z" fill="white"/>
<path opacity="0.1" d="M513.61 125.65C514.56 125.65 515.33 124.881 515.33 123.933C515.33 122.985 514.56 122.216 513.61 122.216C512.66 122.216 511.89 122.985 511.89 123.933C511.89 124.881 512.66 125.65 513.61 125.65Z" fill="white"/>
<path opacity="0.1" d="M405.01 158.659C406.987 158.659 408.59 157.059 408.59 155.086C408.59 153.112 406.987 151.512 405.01 151.512C403.033 151.512 401.43 153.112 401.43 155.086C401.43 157.059 403.033 158.659 405.01 158.659Z" fill="white"/>
<path opacity="0.03" d="M393.84 227.173C395.817 227.173 397.42 225.574 397.42 223.6C397.42 221.627 395.817 220.027 393.84 220.027C391.863 220.027 390.26 221.627 390.26 223.6C390.26 225.574 391.863 227.173 393.84 227.173Z" fill="white"/>
<path opacity="0.03" d="M1058.79 151.762C1070.04 151.762 1079.16 142.659 1079.16 131.429C1079.16 120.2 1070.04 111.096 1058.79 111.096C1047.54 111.096 1038.42 120.2 1038.42 131.429C1038.42 142.659 1047.54 151.762 1058.79 151.762Z" fill="white"/>
<path opacity="0.03" d="M47.93 254.943C48.5707 254.943 49.09 254.424 49.09 253.785C49.09 253.145 48.5707 252.627 47.93 252.627C47.2894 252.627 46.77 253.145 46.77 253.785C46.77 254.424 47.2894 254.943 47.93 254.943Z" fill="white"/>
<path opacity="0.03" d="M508.92 109.18C509.561 109.18 510.08 108.661 510.08 108.022C510.08 107.383 509.561 106.864 508.92 106.864C508.279 106.864 507.76 107.383 507.76 108.022C507.76 108.661 508.279 109.18 508.92 109.18Z" fill="white"/>
<path opacity="0.03" d="M134.35 174.919C136.095 174.919 137.51 173.507 137.51 171.765C137.51 170.023 136.095 168.611 134.35 168.611C132.605 168.611 131.19 170.023 131.19 171.765C131.19 173.507 132.605 174.919 134.35 174.919Z" fill="white"/>
<path opacity="0.03" d="M60.54 222.592C62.2852 222.592 63.7 221.18 63.7 219.438C63.7 217.696 62.2852 216.284 60.54 216.284C58.7948 216.284 57.38 217.696 57.38 219.438C57.38 221.18 58.7948 222.592 60.54 222.592Z" fill="white"/>
<path opacity="0.03" d="M349.37 224.748C351.115 224.748 352.53 223.336 352.53 221.594C352.53 219.852 351.115 218.44 349.37 218.44C347.625 218.44 346.21 219.852 346.21 221.594C346.21 223.336 347.625 224.748 349.37 224.748Z" fill="white"/>
<path opacity="0.5" d="M1670.7 156.783C1671.57 156.783 1672.28 156.076 1672.28 155.205C1672.28 154.334 1671.57 153.628 1670.7 153.628C1669.83 153.628 1669.12 154.334 1669.12 155.205C1669.12 156.076 1669.83 156.783 1670.7 156.783Z" fill="white"/>
<path opacity="0.5" d="M267 174.879C267.873 174.879 268.58 174.173 268.58 173.302C268.58 172.431 267.873 171.725 267 171.725C266.127 171.725 265.42 172.431 265.42 173.302C265.42 174.173 266.127 174.879 267 174.879Z" fill="white"/>
<path d="M417.94 187.257C418.398 187.257 418.77 186.886 418.77 186.428C418.77 185.971 418.398 185.6 417.94 185.6C417.482 185.6 417.11 185.971 417.11 186.428C417.11 186.886 417.482 187.257 417.94 187.257Z" fill="white"/>
<path d="M935.46 165.926C935.918 165.926 936.29 165.555 936.29 165.097C936.29 164.64 935.918 164.269 935.46 164.269C935.002 164.269 934.63 164.64 934.63 165.097C934.63 165.555 935.002 165.926 935.46 165.926Z" fill="white"/>
<path opacity="0.06" d="M1300.93 171.206C1303.97 171.206 1306.43 168.748 1306.43 165.716C1306.43 162.684 1303.97 160.226 1300.93 160.226C1297.89 160.226 1295.43 162.684 1295.43 165.716C1295.43 168.748 1297.89 171.206 1300.93 171.206Z" fill="white"/>
<path opacity="0.05" d="M1789.58 171.007C1793.6 171.007 1796.85 167.758 1796.85 163.75C1796.85 159.742 1793.6 156.493 1789.58 156.493C1785.56 156.493 1782.31 159.742 1782.31 163.75C1782.31 167.758 1785.56 171.007 1789.58 171.007Z" fill="white"/>
<path opacity="0.1" d="M1306.18 64.442C1307.55 64.442 1308.66 63.3336 1308.66 61.9665C1308.66 60.5993 1307.55 59.491 1306.18 59.491C1304.81 59.491 1303.7 60.5993 1303.7 61.9665C1303.7 63.3336 1304.81 64.442 1306.18 64.442Z" fill="white"/>
<path opacity="0.1" d="M1910.77 127.247C1911.43 127.247 1911.96 126.715 1911.96 126.059C1911.96 125.403 1911.43 124.871 1910.77 124.871C1910.11 124.871 1909.58 125.403 1909.58 126.059C1909.58 126.715 1910.11 127.247 1910.77 127.247Z" fill="white"/>
<path opacity="0.1" d="M1865.08 160.815C1866.45 160.815 1867.56 159.707 1867.56 158.34C1867.56 156.973 1866.45 155.864 1865.08 155.864C1863.71 155.864 1862.6 156.973 1862.6 158.34C1862.6 159.707 1863.71 160.815 1865.08 160.815Z" fill="white"/>
<path opacity="0.03" d="M1073.09 190.291C1074.46 190.291 1075.57 189.183 1075.57 187.816C1075.57 186.449 1074.46 185.34 1073.09 185.34C1071.72 185.34 1070.61 186.449 1070.61 187.816C1070.61 189.183 1071.72 190.291 1073.09 190.291Z" fill="white"/>
<path opacity="0.52" d="M1644.46 123.264C1652.25 123.264 1658.56 116.963 1658.56 109.19C1658.56 101.417 1652.25 95.1157 1644.46 95.1157C1636.67 95.1157 1630.36 101.417 1630.36 109.19C1630.36 116.963 1636.67 123.264 1644.46 123.264Z" fill="url(#paint1_radial_10_708)"/>
<path opacity="0.16" d="M1719.29 214.886C1761.6 214.886 1795.89 180.654 1795.89 138.426C1795.89 96.1987 1761.6 61.9665 1719.29 61.9665C1676.99 61.9665 1642.69 96.1987 1642.69 138.426C1642.69 180.654 1676.99 214.886 1719.29 214.886Z" fill="url(#paint2_radial_10_708)"/>
<path opacity="0.71" d="M151.2 131.289C155.094 131.289 158.25 128.139 158.25 124.252C158.25 120.366 155.094 117.215 151.2 117.215C147.306 117.215 144.15 120.366 144.15 124.252C144.15 128.139 147.306 131.289 151.2 131.289Z" fill="url(#paint3_radial_10_708)"/>
<path opacity="0.27" d="M25.43 186.368C41.2198 186.368 54.02 173.592 54.02 157.831C54.02 142.07 41.2198 129.293 25.43 129.293C9.64014 129.293 -3.16003 142.07 -3.16003 157.831C-3.16003 173.592 9.64014 186.368 25.43 186.368Z" fill="url(#paint4_radial_10_708)"/>
<path opacity="0.13" d="M221.9 169.27C243.743 169.27 261.45 151.595 261.45 129.792C261.45 107.989 243.743 90.3145 221.9 90.3145C200.057 90.3145 182.35 107.989 182.35 129.792C182.35 151.595 200.057 169.27 221.9 169.27Z" fill="url(#paint5_radial_10_708)"/>
<path opacity="0.52" d="M429.95 133.236C445.74 133.236 458.54 120.459 458.54 104.698C458.54 88.9372 445.74 76.1604 429.95 76.1604C414.16 76.1604 401.36 88.9372 401.36 104.698C401.36 120.459 414.16 133.236 429.95 133.236Z" fill="url(#paint6_radial_10_708)"/>
<path opacity="0.42" d="M-27.35 175.498C-3.30355 175.498 16.19 156.04 16.19 132.038C16.19 108.035 -3.30355 88.5776 -27.35 88.5776C-51.3965 88.5776 -70.89 108.035 -70.89 132.038C-70.89 156.04 -51.3965 175.498 -27.35 175.498Z" fill="url(#paint7_radial_10_708)"/>
<path opacity="0.69" d="M1226.48 97.2018C1234.25 97.2018 1240.55 90.914 1240.55 83.1576C1240.55 75.4012 1234.25 69.1133 1226.48 69.1133C1218.71 69.1133 1212.41 75.4012 1212.41 83.1576C1212.41 90.914 1218.71 97.2018 1226.48 97.2018Z" fill="url(#paint8_radial_10_708)"/>
<path opacity="0.45" d="M1393.96 156.333C1401.73 156.333 1408.03 150.046 1408.03 142.289C1408.03 134.533 1401.73 128.245 1393.96 128.245C1386.19 128.245 1379.89 134.533 1379.89 142.289C1379.89 150.046 1386.19 156.333 1393.96 156.333Z" fill="url(#paint9_radial_10_708)"/>
<path opacity="0.32" d="M1856.51 154.167C1872.3 154.167 1885.1 141.391 1885.1 125.63C1885.1 109.869 1872.3 97.092 1856.51 97.092C1840.72 97.092 1827.92 109.869 1827.92 125.63C1827.92 141.391 1840.72 154.167 1856.51 154.167Z" fill="url(#paint10_radial_10_708)"/>
<path opacity="0.03" d="M1012.91 192.058C1013.35 192.058 1013.71 191.7 1013.71 191.259C1013.71 190.818 1013.35 190.461 1012.91 190.461C1012.47 190.461 1012.11 190.818 1012.11 191.259C1012.11 191.7 1012.47 192.058 1012.91 192.058Z" fill="white"/>
<path opacity="0.03" d="M1893.09 106.106C1893.53 106.106 1893.89 105.748 1893.89 105.307C1893.89 104.866 1893.53 104.508 1893.09 104.508C1892.65 104.508 1892.29 104.866 1892.29 105.307C1892.29 105.748 1892.65 106.106 1893.09 106.106Z" fill="white"/>
<path opacity="0.03" d="M1840.26 164.169C1841.47 164.169 1842.45 163.19 1842.45 161.983C1842.45 160.776 1841.47 159.797 1840.26 159.797C1839.05 159.797 1838.07 160.776 1838.07 161.983C1838.07 163.19 1839.05 164.169 1840.26 164.169Z" fill="white"/>
<path opacity="0.03" d="M1769.71 157.431C1770.92 157.431 1771.9 156.453 1771.9 155.245C1771.9 154.038 1770.92 153.059 1769.71 153.059C1768.5 153.059 1767.52 154.038 1767.52 155.245C1767.52 156.453 1768.5 157.431 1769.71 157.431Z" fill="white"/>
<path opacity="0.03" d="M1042.3 188.614C1043.51 188.614 1044.49 187.636 1044.49 186.428C1044.49 185.221 1043.51 184.242 1042.3 184.242C1041.09 184.242 1040.11 185.221 1040.11 186.428C1040.11 187.636 1041.09 188.614 1042.3 188.614Z" fill="white"/>
<path opacity="0.5" d="M1308.73 64.6915C1309.33 64.6915 1309.82 64.2043 1309.82 63.6034C1309.82 63.0026 1309.33 62.5154 1308.73 62.5154C1308.13 62.5154 1307.64 63.0026 1307.64 63.6034C1307.64 64.2043 1308.13 64.6915 1308.73 64.6915Z" fill="white"/>
<path opacity="0.5" d="M1797 161.284C1797.6 161.284 1798.09 160.797 1798.09 160.196C1798.09 159.595 1797.6 159.108 1797 159.108C1796.4 159.108 1795.91 159.595 1795.91 160.196C1795.91 160.797 1796.4 161.284 1797 161.284Z" fill="white"/>
<path d="M1130.44 159.328C1130.75 159.328 1131.01 159.073 1131.01 158.759C1131.01 158.445 1130.75 158.19 1130.44 158.19C1130.13 158.19 1129.87 158.445 1129.87 158.759C1129.87 159.073 1130.13 159.328 1130.44 159.328Z" fill="white"/>
<path d="M1247.33 58.8521C1247.64 58.8521 1247.9 58.5974 1247.9 58.2832C1247.9 57.969 1247.64 57.7142 1247.33 57.7142C1247.02 57.7142 1246.76 57.969 1246.76 58.2832C1246.76 58.5974 1247.02 58.8521 1247.33 58.8521Z" fill="white"/>
<path opacity="0.05" d="M1887.76 118.533C1894.93 118.533 1900.75 112.728 1900.75 105.567C1900.75 98.4055 1894.93 92.6003 1887.76 92.6003C1880.59 92.6003 1874.77 98.4055 1874.77 105.567C1874.77 112.728 1880.59 118.533 1887.76 118.533Z" fill="white"/>
<path opacity="0.05" d="M1683.69 112.693C1690.86 112.693 1696.68 106.888 1696.68 99.7272C1696.68 92.5662 1690.86 86.761 1683.69 86.761C1676.52 86.761 1670.7 92.5662 1670.7 99.7272C1670.7 106.888 1676.52 112.693 1683.69 112.693Z" fill="white"/>
<path opacity="0.1" d="M420.43 84.4353C422.871 84.4353 424.85 82.46 424.85 80.0234C424.85 77.5867 422.871 75.6115 420.43 75.6115C417.989 75.6115 416.01 77.5867 416.01 80.0234C416.01 82.46 417.989 84.4353 420.43 84.4353Z" fill="white"/>
<path opacity="0.1" d="M1469.36 69.1034C1470.54 69.1034 1471.49 68.1515 1471.49 66.9773C1471.49 65.8031 1470.54 64.8512 1469.36 64.8512C1468.18 64.8512 1467.23 65.8031 1467.23 66.9773C1467.23 68.1515 1468.18 69.1034 1469.36 69.1034Z" fill="white"/>
<path opacity="0.1" d="M1758.06 110.488C1760.5 110.488 1762.48 108.512 1762.48 106.076C1762.48 103.639 1760.5 101.664 1758.06 101.664C1755.62 101.664 1753.64 103.639 1753.64 106.076C1753.64 108.512 1755.62 110.488 1758.06 110.488Z" fill="white"/>
<path opacity="0.03" d="M1847.02 81.0415C1849.46 81.0415 1851.44 79.0663 1851.44 76.6296C1851.44 74.193 1849.46 72.2177 1847.02 72.2177C1844.58 72.2177 1842.6 74.193 1842.6 76.6296C1842.6 79.0663 1844.58 81.0415 1847.02 81.0415Z" fill="white"/>
<path opacity="0.03" d="M1446.67 90.8136C1453.77 90.8136 1459.52 85.071 1459.52 77.9871C1459.52 70.9033 1453.77 65.1606 1446.67 65.1606C1439.57 65.1606 1433.82 70.9033 1433.82 77.9871C1433.82 85.071 1439.57 90.8136 1446.67 90.8136Z" fill="white"/>
<path opacity="0.03" d="M121.99 160.416C135.902 160.416 147.18 149.159 147.18 135.272C147.18 121.385 135.902 110.128 121.99 110.128C108.078 110.128 96.8 121.385 96.8 135.272C96.8 149.159 108.078 160.416 121.99 160.416Z" fill="white"/>
<path opacity="0.2" d="M121.99 147.669C128.849 147.669 134.41 142.119 134.41 135.272C134.41 128.425 128.849 122.875 121.99 122.875C115.131 122.875 109.57 128.425 109.57 135.272C109.57 142.119 115.131 147.669 121.99 147.669Z" fill="white"/>
<path opacity="0.2" d="M547.4 114.35C554.259 114.35 559.82 108.8 559.82 101.953C559.82 95.1064 554.259 89.5559 547.4 89.5559C540.541 89.5559 534.98 95.1064 534.98 101.953C534.98 108.8 540.541 114.35 547.4 114.35Z" fill="white"/>
<path opacity="0.03" d="M934.71 182.625C935.5 182.625 936.14 181.986 936.14 181.198C936.14 180.41 935.5 179.771 934.71 179.771C933.92 179.771 933.28 180.41 933.28 181.198C933.28 181.986 933.92 182.625 934.71 182.625Z" fill="white"/>
<path opacity="0.03" d="M1802.77 112.753C1804.92 112.753 1806.67 111.01 1806.67 108.861C1806.67 106.711 1804.92 104.968 1802.77 104.968C1800.62 104.968 1798.87 106.711 1798.87 108.861C1798.87 111.01 1800.62 112.753 1802.77 112.753Z" fill="white"/>
<path opacity="0.03" d="M1923.56 150.524C1925.71 150.524 1927.46 148.781 1927.46 146.631C1927.46 144.481 1925.71 142.738 1923.56 142.738C1921.41 142.738 1919.66 144.481 1919.66 146.631C1919.66 148.781 1921.41 150.524 1923.56 150.524Z" fill="white"/>
<path opacity="0.03" d="M1850.93 84.565C1853.08 84.565 1854.83 82.8221 1854.83 80.6722C1854.83 78.5222 1853.08 76.7793 1850.93 76.7793C1848.78 76.7793 1847.03 78.5222 1847.03 80.6722C1847.03 82.8221 1848.78 84.565 1850.93 84.565Z" fill="white"/>
<path opacity="0.5" d="M416.58 78.1668C417.657 78.1668 418.53 77.2953 418.53 76.2204C418.53 75.1454 417.657 74.2739 416.58 74.2739C415.503 74.2739 414.63 75.1454 414.63 76.2204C414.63 77.2953 415.503 78.1668 416.58 78.1668Z" fill="white"/>
<path opacity="0.5" d="M1782.31 80.5224C1783.39 80.5224 1784.26 79.651 1784.26 78.576C1784.26 77.501 1783.39 76.6296 1782.31 76.6296C1781.23 76.6296 1780.36 77.501 1780.36 78.576C1780.36 79.651 1781.23 80.5224 1782.31 80.5224Z" fill="white"/>
<path d="M1090 125.989C1090.56 125.989 1091.02 125.533 1091.02 124.971C1091.02 124.409 1090.56 123.953 1090 123.953C1089.44 123.953 1088.98 124.409 1088.98 124.971C1088.98 125.533 1089.44 125.989 1090 125.989Z" fill="white"/>
<path d="M557.19 131.08C557.753 131.08 558.21 130.624 558.21 130.062C558.21 129.499 557.753 129.043 557.19 129.043C556.627 129.043 556.17 129.499 556.17 130.062C556.17 130.624 556.627 131.08 557.19 131.08Z" fill="white"/>
<path opacity="0.06" d="M246.04 103.181C251.469 103.181 255.87 98.7879 255.87 93.3689C255.87 87.9499 251.469 83.5569 246.04 83.5569C240.611 83.5569 236.21 87.9499 236.21 93.3689C236.21 98.7879 240.611 103.181 246.04 103.181Z" fill="white"/>
<path opacity="0.05" d="M84.45 189.612C91.6242 189.612 97.44 183.807 97.44 176.646C97.44 169.485 91.6242 163.68 84.45 163.68C77.2758 163.68 71.46 169.485 71.46 176.646C71.46 183.807 77.2758 189.612 84.45 189.612Z" fill="white"/>
<path opacity="0.1" d="M57.8699 272.131C60.311 272.131 62.2899 270.156 62.2899 267.719C62.2899 265.283 60.311 263.307 57.8699 263.307C55.4288 263.307 53.45 265.283 53.45 267.719C53.45 270.156 55.4288 272.131 57.8699 272.131Z" fill="white"/>
<path opacity="0.1" d="M467.65 245.45C468.826 245.45 469.78 244.498 469.78 243.324C469.78 242.15 468.826 241.198 467.65 241.198C466.474 241.198 465.52 242.15 465.52 243.324C465.52 244.498 466.474 245.45 467.65 245.45Z" fill="white"/>
<path opacity="0.03" d="M316.32 277.881C318.761 277.881 320.74 275.905 320.74 273.469C320.74 271.032 318.761 269.057 316.32 269.057C313.879 269.057 311.9 271.032 311.9 273.469C311.9 275.905 313.879 277.881 316.32 277.881Z" fill="white"/>
<path opacity="0.03" d="M417.86 130.351C424.957 130.351 430.71 124.608 430.71 117.525C430.71 110.441 424.957 104.698 417.86 104.698C410.763 104.698 405.01 110.441 405.01 117.525C405.01 124.608 410.763 130.351 417.86 130.351Z" fill="white"/>
<path opacity="0.03" d="M444.43 201.97C445.22 201.97 445.86 201.331 445.86 200.542C445.86 199.754 445.22 199.115 444.43 199.115C443.64 199.115 443 199.754 443 200.542C443 201.331 443.64 201.97 444.43 201.97Z" fill="white"/>
<path opacity="0.03" d="M263.04 275.086C265.194 275.086 266.94 273.343 266.94 271.193C266.94 269.043 265.194 267.3 263.04 267.3C260.886 267.3 259.14 269.043 259.14 271.193C259.14 273.343 260.886 275.086 263.04 275.086Z" fill="white"/>
<path opacity="0.5" d="M61.72 273.469C62.797 273.469 63.67 272.597 63.67 271.522C63.67 270.447 62.797 269.576 61.72 269.576C60.6431 269.576 59.77 270.447 59.77 271.522C59.77 272.597 60.6431 273.469 61.72 273.469Z" fill="white"/>
<path opacity="0.5" d="M572.19 90.015C573.267 90.015 574.14 89.1436 574.14 88.0686C574.14 86.9936 573.267 86.1222 572.19 86.1222C571.113 86.1222 570.24 86.9936 570.24 88.0686C570.24 89.1436 571.113 90.015 572.19 90.015Z" fill="white"/>
<path d="M310.95 151.602C311.513 151.602 311.97 151.146 311.97 150.584C311.97 150.022 311.513 149.566 310.95 149.566C310.387 149.566 309.93 150.022 309.93 150.584C309.93 151.146 310.387 151.602 310.95 151.602Z" fill="white"/>
<path d="M891.44 180.03C892.003 180.03 892.46 179.574 892.46 179.012C892.46 178.45 892.003 177.994 891.44 177.994C890.877 177.994 890.42 178.45 890.42 179.012C890.42 179.574 890.877 180.03 891.44 180.03Z" fill="white"/>
<path opacity="0.06" d="M1512.54 124.652C1517.97 124.652 1522.37 120.259 1522.37 114.84C1522.37 109.421 1517.97 105.028 1512.54 105.028C1507.11 105.028 1502.71 109.421 1502.71 114.84C1502.71 120.259 1507.11 124.652 1512.54 124.652Z" fill="white"/>
<path opacity="0.1" d="M1410.83 123.224C1413.27 123.224 1415.25 121.249 1415.25 118.812C1415.25 116.376 1413.27 114.4 1410.83 114.4C1408.39 114.4 1406.41 116.376 1406.41 118.812C1406.41 121.249 1408.39 123.224 1410.83 123.224Z" fill="white"/>
<path opacity="0.5" d="M1161.77 174.929C1162.85 174.929 1163.72 174.058 1163.72 172.983C1163.72 171.908 1162.85 171.036 1161.77 171.036C1160.69 171.036 1159.82 171.908 1159.82 172.983C1159.82 174.058 1160.69 174.929 1161.77 174.929Z" fill="white"/>
<path d="M1829.92 84.9743C1830.48 84.9743 1830.94 84.5185 1830.94 83.9562C1830.94 83.3939 1830.48 82.938 1829.92 82.938C1829.36 82.938 1828.9 83.3939 1828.9 83.9562C1828.9 84.5185 1829.36 84.9743 1829.92 84.9743Z" fill="white"/>
<path opacity="0.06" d="M67.65 209.736C71.4055 209.736 74.45 206.697 74.45 202.948C74.45 199.199 71.4055 196.16 67.65 196.16C63.8944 196.16 60.85 199.199 60.85 202.948C60.85 206.697 63.8944 209.736 67.65 209.736Z" fill="white"/>
<path opacity="0.1" d="M61.42 230.348C63.11 230.348 64.48 228.98 64.48 227.293C64.48 225.606 63.11 224.239 61.42 224.239C59.73 224.239 58.36 225.606 58.36 227.293C58.36 228.98 59.73 230.348 61.42 230.348Z" fill="white"/>
<path opacity="0.03" d="M88.7501 136.719C98.3764 136.719 106.18 128.93 106.18 119.321C106.18 109.713 98.3764 101.923 88.7501 101.923C79.1237 101.923 71.3201 109.713 71.3201 119.321C71.3201 128.93 79.1237 136.719 88.7501 136.719Z" fill="white"/>
<path d="M138.2 142.369C138.946 142.369 139.55 141.766 139.55 141.021C139.55 140.277 138.946 139.674 138.2 139.674C137.454 139.674 136.85 140.277 136.85 141.021C136.85 141.766 137.454 142.369 138.2 142.369Z" fill="white"/>
<path d="M547.42 119.152C548.166 119.152 548.77 118.548 548.77 117.804C548.77 117.06 548.166 116.457 547.42 116.457C546.674 116.457 546.07 117.06 546.07 117.804C546.07 118.548 546.674 119.152 547.42 119.152Z" fill="white"/>
<path d="M1400.84 60.9583C1401.59 60.9583 1402.19 60.355 1402.19 59.6108C1402.19 58.8666 1401.59 58.2632 1400.84 58.2632C1400.09 58.2632 1399.49 58.8666 1399.49 59.6108C1399.49 60.355 1400.09 60.9583 1400.84 60.9583Z" fill="white"/>
<path d="M1.88004 231.825C2.27216 231.825 2.59003 231.508 2.59003 231.116C2.59003 230.725 2.27216 230.408 1.88004 230.408C1.48791 230.408 1.17004 230.725 1.17004 231.116C1.17004 231.508 1.48791 231.825 1.88004 231.825Z" fill="white"/>
<path opacity="0.05" d="M1594.35 118.523C1601.52 118.523 1607.34 112.718 1607.34 105.557C1607.34 98.3955 1601.52 92.5903 1594.35 92.5903C1587.18 92.5903 1581.36 98.3955 1581.36 105.557C1581.36 112.718 1587.18 118.523 1594.35 118.523Z" fill="white"/>
<path opacity="0.1" d="M770.55 173.612C772.991 173.612 774.97 171.637 774.97 169.2C774.97 166.763 772.991 164.788 770.55 164.788C768.109 164.788 766.13 166.763 766.13 169.2C766.13 171.637 768.109 173.612 770.55 173.612Z" fill="white"/>
<path opacity="0.1" d="M1792.56 81.7302C1793.74 81.7302 1794.69 80.7783 1794.69 79.6041C1794.69 78.4299 1793.74 77.478 1792.56 77.478C1791.38 77.478 1790.43 78.4299 1790.43 79.6041C1790.43 80.7783 1791.38 81.7302 1792.56 81.7302Z" fill="white"/>
<path opacity="0.1" d="M1630.13 87.0305C1632.57 87.0305 1634.55 85.0553 1634.55 82.6186C1634.55 80.182 1632.57 78.2067 1630.13 78.2067C1627.69 78.2067 1625.71 80.182 1625.71 82.6186C1625.71 85.0553 1627.69 87.0305 1630.13 87.0305Z" fill="white"/>
<path opacity="0.03" d="M1539.03 72.8365C1541.47 72.8365 1543.45 70.8612 1543.45 68.4246C1543.45 65.988 1541.47 64.0127 1539.03 64.0127C1536.59 64.0127 1534.61 65.988 1534.61 68.4246C1534.61 70.8612 1536.59 72.8365 1539.03 72.8365Z" fill="white"/>
<path opacity="0.03" d="M1083.77 191.988C1090.87 191.988 1096.62 186.245 1096.62 179.162C1096.62 172.078 1090.87 166.335 1083.77 166.335C1076.67 166.335 1070.92 172.078 1070.92 179.162C1070.92 186.245 1076.67 191.988 1083.77 191.988Z" fill="white"/>
<path opacity="0.03" d="M692.09 162.941C706.002 162.941 717.28 151.684 717.28 137.797C717.28 123.911 706.002 112.654 692.09 112.654C678.178 112.654 666.9 123.911 666.9 137.797C666.9 151.684 678.178 162.941 692.09 162.941Z" fill="white"/>
<path opacity="0.2" d="M970.89 128.674C977.749 128.674 983.31 123.124 983.31 116.277C983.31 109.43 977.749 103.88 970.89 103.88C964.031 103.88 958.47 109.43 958.47 116.277C958.47 123.124 964.031 128.674 970.89 128.674Z" fill="white"/>
<path opacity="0.03" d="M1645.46 65.4401C1646.25 65.4401 1646.89 64.801 1646.89 64.0127C1646.89 63.2244 1646.25 62.5853 1645.46 62.5853C1644.67 62.5853 1644.03 63.2244 1644.03 64.0127C1644.03 64.801 1644.67 65.4401 1645.46 65.4401Z" fill="white"/>
<path opacity="0.03" d="M1834.87 99.9967C1835.66 99.9967 1836.3 99.3577 1836.3 98.5694C1836.3 97.781 1835.66 97.142 1834.87 97.142C1834.08 97.142 1833.44 97.781 1833.44 98.5694C1833.44 99.3577 1834.08 99.9967 1834.87 99.9967Z" fill="white"/>
<path opacity="0.03" d="M1505.13 93.878C1507.28 93.878 1509.03 92.1351 1509.03 89.9851C1509.03 87.8351 1507.28 86.0922 1505.13 86.0922C1502.98 86.0922 1501.23 87.8351 1501.23 89.9851C1501.23 92.1351 1502.98 93.878 1505.13 93.878Z" fill="white"/>
<path opacity="0.03" d="M1308.07 177.475C1310.22 177.475 1311.97 175.732 1311.97 173.582C1311.97 171.432 1310.22 169.689 1308.07 169.689C1305.92 169.689 1304.17 171.432 1304.17 173.582C1304.17 175.732 1305.92 177.475 1308.07 177.475Z" fill="white"/>
<path opacity="0.03" d="M1592.31 86.0822C1594.46 86.0822 1596.21 84.3393 1596.21 82.1894C1596.21 80.0394 1594.46 78.2965 1592.31 78.2965C1590.16 78.2965 1588.41 80.0394 1588.41 82.1894C1588.41 84.3393 1590.16 86.0822 1592.31 86.0822Z" fill="white"/>
<path opacity="0.5" d="M766.71 167.353C767.787 167.353 768.66 166.482 768.66 165.407C768.66 164.332 767.787 163.46 766.71 163.46C765.633 163.46 764.76 164.332 764.76 165.407C764.76 166.482 765.633 167.353 766.71 167.353Z" fill="white"/>
<path opacity="0.5" d="M1607.96 153.718C1609.04 153.718 1609.91 152.847 1609.91 151.772C1609.91 150.697 1609.04 149.825 1607.96 149.825C1606.88 149.825 1606.01 150.697 1606.01 151.772C1606.01 152.847 1606.88 153.718 1607.96 153.718Z" fill="white"/>
<path d="M1113.47 65.8294C1114.03 65.8294 1114.49 65.3736 1114.49 64.8113C1114.49 64.249 1114.03 63.7932 1113.47 63.7932C1112.91 63.7932 1112.45 64.249 1112.45 64.8113C1112.45 65.3736 1112.91 65.8294 1113.47 65.8294Z" fill="white"/>
<path d="M1431.26 61.2578C1431.82 61.2578 1432.28 60.8019 1432.28 60.2396C1432.28 59.6773 1431.82 59.2215 1431.26 59.2215C1430.7 59.2215 1430.24 59.6773 1430.24 60.2396C1430.24 60.8019 1430.7 61.2578 1431.26 61.2578Z" fill="white"/>
<path opacity="0.06" d="M819.89 87.819C825.319 87.819 829.72 83.426 829.72 78.007C829.72 72.588 825.319 68.195 819.89 68.195C814.461 68.195 810.06 72.588 810.06 78.007C810.06 83.426 814.461 87.819 819.89 87.819Z" fill="white"/>
<path opacity="0.05" d="M373.38 121.867C380.554 121.867 386.37 116.061 386.37 108.9C386.37 101.739 380.554 95.9341 373.38 95.9341C366.206 95.9341 360.39 101.739 360.39 108.9C360.39 116.061 366.206 121.867 373.38 121.867Z" fill="white"/>
<path opacity="0.1" d="M810.9 117.584C813.341 117.584 815.32 115.609 815.32 113.173C815.32 110.736 813.341 108.761 810.9 108.761C808.459 108.761 806.48 110.736 806.48 113.173C806.48 115.609 808.459 117.584 810.9 117.584Z" fill="white"/>
<path opacity="0.1" d="M530.21 82.6984C531.386 82.6984 532.34 81.7465 532.34 80.5723C532.34 79.3981 531.386 78.4462 530.21 78.4462C529.034 78.4462 528.08 79.3981 528.08 80.5723C528.08 81.7465 529.034 82.6984 530.21 82.6984Z" fill="white"/>
<path opacity="0.1" d="M459.26 138.626C461.701 138.626 463.68 136.651 463.68 134.214C463.68 131.777 461.701 129.802 459.26 129.802C456.819 129.802 454.84 131.777 454.84 134.214C454.84 136.651 456.819 138.626 459.26 138.626Z" fill="white"/>
<path opacity="0.03" d="M164.66 170.887C167.101 170.887 169.08 168.911 169.08 166.475C169.08 164.038 167.101 162.063 164.66 162.063C162.219 162.063 160.24 164.038 160.24 166.475C160.24 168.911 162.219 170.887 164.66 170.887Z" fill="white"/>
<path opacity="0.03" d="M601.38 123.923C608.477 123.923 614.23 118.18 614.23 111.096C614.23 104.013 608.477 98.2699 601.38 98.2699C594.283 98.2699 588.53 104.013 588.53 111.096C588.53 118.18 594.283 123.923 601.38 123.923Z" fill="white"/>
<path opacity="0.03" d="M274.22 169.918C275.01 169.918 275.65 169.279 275.65 168.491C275.65 167.703 275.01 167.064 274.22 167.064C273.43 167.064 272.79 167.703 272.79 168.491C272.79 169.279 273.43 169.918 274.22 169.918Z" fill="white"/>
<path opacity="0.03" d="M414.55 135.322C416.704 135.322 418.45 133.579 418.45 131.429C418.45 129.279 416.704 127.536 414.55 127.536C412.396 127.536 410.65 129.279 410.65 131.429C410.65 133.579 412.396 135.322 414.55 135.322Z" fill="white"/>
<path opacity="0.03" d="M293.75 97.5512C295.904 97.5512 297.65 95.8083 297.65 93.6583C297.65 91.5083 295.904 89.7654 293.75 89.7654C291.596 89.7654 289.85 91.5083 289.85 93.6583C289.85 95.8083 291.596 97.5512 293.75 97.5512Z" fill="white"/>
<path opacity="0.03" d="M111.38 156.603C113.534 156.603 115.28 154.86 115.28 152.71C115.28 150.56 113.534 148.817 111.38 148.817C109.226 148.817 107.48 150.56 107.48 152.71C107.48 154.86 109.226 156.603 111.38 156.603Z" fill="white"/>
<path opacity="0.5" d="M814.74 118.922C815.817 118.922 816.69 118.051 816.69 116.976C816.69 115.901 815.817 115.029 814.74 115.029C813.663 115.029 812.79 115.901 812.79 116.976C812.79 118.051 813.663 118.922 814.74 118.922Z" fill="white"/>
<path opacity="0.5" d="M339.61 114.32C340.687 114.32 341.56 113.449 341.56 112.374C341.56 111.299 340.687 110.428 339.61 110.428C338.533 110.428 337.66 111.299 337.66 112.374C337.66 113.449 338.533 114.32 339.61 114.32Z" fill="white"/>
<path d="M491.64 156.024C492.203 156.024 492.66 155.568 492.66 155.006C492.66 154.444 492.203 153.988 491.64 153.988C491.077 153.988 490.62 154.444 490.62 155.006C490.62 155.568 491.077 156.024 491.64 156.024Z" fill="white"/>
<path d="M710.88 79.085C711.443 79.085 711.9 78.6292 711.9 78.0669C711.9 77.5046 711.443 77.0488 710.88 77.0488C710.317 77.0488 709.86 77.5046 709.86 78.0669C709.86 78.6292 710.317 79.085 710.88 79.085Z" fill="white"/>
<path opacity="0.06" d="M505.18 134.753C508.936 134.753 511.98 131.714 511.98 127.965C511.98 124.217 508.936 121.178 505.18 121.178C501.424 121.178 498.38 124.217 498.38 127.965C498.38 131.714 501.424 134.753 505.18 134.753Z" fill="white"/>
<path opacity="0.05" d="M63.23 163.959C68.1951 163.959 72.22 159.942 72.22 154.986C72.22 150.03 68.1951 146.012 63.23 146.012C58.265 146.012 54.24 150.03 54.24 154.986C54.24 159.942 58.265 163.959 63.23 163.959Z" fill="white"/>
<path opacity="0.1" d="M455.25 108.381C456.94 108.381 458.31 107.014 458.31 105.327C458.31 103.64 456.94 102.273 455.25 102.273C453.56 102.273 452.19 103.64 452.19 105.327C452.19 107.014 453.56 108.381 455.25 108.381Z" fill="white"/>
<path opacity="0.03" d="M281.69 97.7309C286.6 97.7309 290.58 93.758 290.58 88.8571C290.58 83.9563 286.6 79.9834 281.69 79.9834C276.78 79.9834 272.8 83.9563 272.8 88.8571C272.8 93.758 276.78 97.7309 281.69 97.7309Z" fill="white"/>
<path opacity="0.03" d="M485.02 102.592C494.646 102.592 502.45 94.8025 502.45 85.1938C502.45 75.5851 494.646 67.7957 485.02 67.7957C475.394 67.7957 467.59 75.5851 467.59 85.1938C467.59 94.8025 475.394 102.592 485.02 102.592Z" fill="white"/>
<path opacity="0.73" d="M457.91 109.31C458.656 109.31 459.26 108.706 459.26 107.962C459.26 107.218 458.656 106.615 457.91 106.615C457.164 106.615 456.56 107.218 456.56 107.962C456.56 108.706 457.164 109.31 457.91 109.31Z" fill="white"/>
<path d="M287.28 63.7232C287.672 63.7232 287.99 63.4059 287.99 63.0145C287.99 62.6231 287.672 62.3058 287.28 62.3058C286.888 62.3058 286.57 62.6231 286.57 63.0145C286.57 63.4059 286.888 63.7232 287.28 63.7232Z" fill="white"/>
</g>
<path d="M740.8 54.2406C740.683 54.8887 740.737 55.556 740.956 56.1771C741.175 56.7983 741.552 57.352 742.05 57.784L742.7 58.353C741.804 58.8456 741.033 59.5361 740.446 60.3717C739.858 61.2072 739.47 62.1658 739.31 63.1742C736.001 83.2978 734.455 103.671 734.69 124.063L735.69 299.451H1184.21L1183.21 115.358C1182.63 94.5846 1180.24 73.9007 1176.06 53.5418C1175.87 52.5884 1175.46 51.6914 1174.87 50.9198C1174.27 50.1481 1173.51 49.5221 1172.64 49.09L1172.52 49.0301C1173.19 48.3618 1173.67 47.5376 1173.94 46.6328C1174.21 45.7279 1174.24 44.7711 1174.04 43.8496C1170.86 29.426 1166.92 14.743 1162.34 0H753.5C748.339 17.8511 744.1 35.9552 740.8 54.2406Z" fill="#F2F2F2" stroke="black" stroke-linecap="round" stroke-linejoin="round"/>
<path d="M740.86 53.8115C740.724 54.59 740.791 55.3905 741.056 56.1355C741.32 56.8804 741.773 57.5446 742.37 58.0637L742.7 58.3531C806.15 23.537 879.03 3.25417 957.5 1.72697C1036.16 0.199774 1107.5 16.5498 1172.5 49.0802C1173.16 48.4149 1173.65 47.5939 1173.91 46.6922C1174.18 45.7906 1174.21 44.8372 1174.01 43.9196C1170.83 29.4861 1166.9 14.803 1162.31 0.0500488H753.5C748.379 17.7457 744.16 35.6892 740.86 53.8115Z" fill="#ED1C24" stroke="black" stroke-linecap="round" stroke-linejoin="round"/>
<path d="M744.01 37.7709C742.78 43.5104 741.78 48.621 740.81 54.1409C740.69 54.8152 740.745 55.5092 740.971 56.156C741.197 56.8028 741.586 57.3807 742.1 57.8341L742.7 58.3531C806.04 23.6967 879.22 3.25417 957.5 1.72697C1035.01 0.229719 1108.28 17.4781 1172.5 49.0802C1173.17 48.4088 1173.66 47.5812 1173.92 46.6729C1174.19 45.7645 1174.22 44.8043 1174.02 43.8797C1172.89 38.7191 1171.77 34.0078 1170.39 28.5678C1146.44 16.9193 1121.53 7.37729 1095.92 0.0500488H836.55C804.418 9.22026 773.387 21.869 744.01 37.7709Z" fill="#B3B3B3" stroke="black" stroke-linecap="round" stroke-linejoin="round"/>
<path d="M1173.23 46.2154C1173.7 46.445 1174.23 44.8878 1173.96 43.8797C1172.85 38.8023 1171.64 33.6984 1170.34 28.5678C1146.41 16.922 1121.51 7.38003 1095.92 0.0500488H1006.59C1064.55 4.82798 1121.09 20.491 1173.23 46.2154Z" fill="white" stroke="black" stroke-linecap="round" stroke-linejoin="round"/>
<path d="M741.56 55.728C798.722 24.3385 861.886 5.36451 926.91 0.0500488H836.55C804.418 9.22026 773.387 21.869 744.01 37.7709C742.77 43.5802 741.647 49.3497 740.64 55.0792C740.618 55.1955 740.63 55.3156 740.675 55.4252C740.72 55.5349 740.795 55.6294 740.892 55.6977C740.989 55.766 741.103 55.8051 741.221 55.8105C741.34 55.8159 741.457 55.7872 741.56 55.728Z" fill="white" stroke="black" stroke-linecap="round" stroke-linejoin="round"/>
<path opacity="0.5" d="M1183.6 197.907C1115.1 171.046 1038.22 156.673 957.2 158.25C877.2 159.797 801.88 176.716 735.12 205.523L735.65 299.501H1184.17L1183.6 197.907Z" fill="#F2F2F2" stroke="black" stroke-linecap="round" stroke-linejoin="round"/>
<path opacity="0.5" d="M1183.6 200.962C1115.1 174.101 1038.22 159.727 957.2 161.304C877.2 162.851 801.88 179.77 735.12 208.578L735.63 299.501H1184.15L1183.6 200.962Z" fill="#F2F2F2" stroke="black" stroke-linecap="round" stroke-linejoin="round"/>
<path opacity="0.05" d="M1029.98 115.928L1027.06 299.501H1174.15L1173.15 122.406C1172.42 84.8645 1163.85 42.612 1150.05 0.0500488H1029.4C1031.35 40.6955 1031.19 80.5824 1029.98 115.928Z" fill="black" stroke="black" stroke-linecap="round" stroke-linejoin="round"/>
<path opacity="0.4" d="M765.71 0.0500488C754.19 41.3843 746.89 83.3473 746.13 122.406L745.13 299.501H786.5L783.58 115.928C782.31 78.9953 787.06 39.4678 796.08 0.0500488H765.71Z" fill="white" stroke="white" stroke-linecap="round" stroke-linejoin="round"/>
<path opacity="0.5" d="M1104.29 22.1295C1112.19 32.3208 1116.19 88.0686 1115.29 115.957L1114.29 175.848L1110.99 178.094L1114.24 178.892L1112.14 299.501" stroke="black" stroke-linecap="round" stroke-linejoin="round"/>
<path opacity="0.5" d="M1142.65 35.7845C1151.71 55.2189 1154.72 99.6674 1153.77 126.099L1152.77 186.738L1149.48 188.864L1152.73 190.012L1150.67 299.501" stroke="black" stroke-linecap="round" stroke-linejoin="round"/>
<path d="M957.64 292.91C1026.72 292.91 1082.72 236.91 1082.72 167.83C1082.72 98.7502 1026.72 42.75 957.64 42.75C888.56 42.75 832.56 98.7502 832.56 167.83C832.56 236.91 888.56 292.91 957.64 292.91Z" fill="#808080" stroke="black" stroke-miterlimit="10"/>
<path d="M957.64 286.23C1026.72 286.23 1082.72 230.23 1082.72 161.15C1082.72 92.0702 1026.72 36.0699 957.64 36.0699C888.56 36.0699 832.56 92.0702 832.56 161.15C832.56 230.23 888.56 286.23 957.64 286.23Z" fill="#CCCCCC" stroke="black" stroke-linecap="round" stroke-linejoin="round"/>
<path d="M959 266.33C1016.87 266.33 1063.79 219.414 1063.79 161.54C1063.79 103.666 1016.87 56.75 959 56.75C901.126 56.75 854.21 103.666 854.21 161.54C854.21 219.414 901.126 266.33 959 266.33Z" fill="white"/>
<path d="M1082.7 158.72C1082.37 140.691 1078.12 122.949 1070.26 106.72C1077.62 123.523 1081.16 141.748 1080.63 160.085C1080.1 178.421 1075.51 196.412 1067.19 212.761C1058.87 229.11 1047.03 243.411 1032.52 254.634C1018.01 265.856 1001.19 273.721 983.277 277.662C965.361 281.603 946.794 281.522 928.914 277.424C911.033 273.327 894.284 265.315 879.872 253.966C865.46 242.617 853.744 228.213 845.568 211.792C837.392 195.37 832.96 177.34 832.59 159C832.59 160.53 832.59 162.07 832.59 163.62C833.236 196.788 847.031 228.341 870.941 251.338C894.851 274.334 926.917 286.891 960.085 286.245C993.253 285.599 1024.81 271.804 1047.8 247.894C1070.8 223.984 1083.36 191.918 1082.71 158.75L1082.7 158.72Z" fill="#999999"/>
<path d="M833.94 167.41C833.369 137.876 843.267 109.094 861.882 86.1577C880.496 63.2219 906.626 47.6128 935.645 42.0942C964.664 36.5757 994.7 41.5038 1020.43 56.0059C1046.17 70.508 1065.94 93.6485 1076.25 121.33C1070.94 105.622 1062.57 91.1248 1051.61 78.6823C1040.65 66.2398 1027.33 56.0997 1012.41 48.8515C997.501 41.6033 981.296 37.3917 964.742 36.4613C948.187 35.5309 931.613 37.9004 915.982 43.432C900.352 48.9637 885.976 57.5471 873.692 68.6834C861.408 79.8196 851.46 93.2866 844.426 108.301C837.393 123.316 833.414 139.579 832.721 156.145C832.028 172.712 834.635 189.25 840.39 204.8C836.352 192.737 834.177 180.129 833.94 167.41Z" fill="white"/>
<path d="M957.64 286.23C1026.72 286.23 1082.72 230.23 1082.72 161.15C1082.72 92.0702 1026.72 36.0699 957.64 36.0699C888.56 36.0699 832.56 92.0702 832.56 161.15C832.56 230.23 888.56 286.23 957.64 286.23Z" stroke="black" stroke-linecap="round" stroke-linejoin="round"/>
<path d="M957.64 260.65C1015.19 260.65 1061.85 213.994 1061.85 156.44C1061.85 98.8864 1015.19 52.23 957.64 52.23C900.086 52.23 853.43 98.8864 853.43 156.44C853.43 213.994 900.086 260.65 957.64 260.65Z" fill="#999999"/>
<path d="M855.92 163C856.962 136.72 868.135 111.864 887.098 93.6388C906.06 75.4139 931.34 65.2351 957.64 65.2351C983.94 65.2351 1009.22 75.4139 1028.18 93.6388C1047.14 111.864 1058.32 136.72 1059.36 163C1059.44 161 1059.15 159.07 1059.11 157C1058.02 100.78 1011.88 56 955.66 57C942.289 57.2484 929.099 60.1308 916.843 65.4824C904.587 70.834 893.507 78.5497 884.237 88.188C874.966 97.8263 867.687 109.198 862.816 121.653C857.945 134.107 855.578 147.4 855.85 160.77C855.87 161.55 855.89 162.27 855.92 163Z" fill="#808080"/>
<path d="M955.66 57.05C943.508 57.2766 931.495 59.6778 920.19 64.14C881.81 79.33 854.24 117.85 855.09 161.54" stroke="black" stroke-linecap="round" stroke-linejoin="round"/>
<path d="M1059.75 158.16C1057.28 132.281 1045.07 108.306 1025.6 91.0825C1006.13 73.8587 980.845 64.6711 954.858 65.3773C928.871 66.0835 904.122 76.6309 885.614 94.8869C867.107 113.143 856.222 137.745 855.16 163.72C855.232 162.993 855.209 162.26 855.09 161.54C855.748 188.107 866.691 213.381 885.614 232.04C904.538 250.698 929.964 261.283 956.538 261.566C983.111 261.848 1008.76 251.806 1028.07 233.555C1047.39 215.303 1058.87 190.267 1060.09 163.72C1060.09 163.44 1060.09 163.15 1060.04 162.86C1059.88 161.25 1059.87 159.5 1059.75 158.16Z" fill="white" stroke="black" stroke-linecap="round" stroke-linejoin="round"/>
<path d="M1001 66.76C1001 66.76 1014.95 73.41 1022.86 80.83" stroke="black" stroke-linecap="round" stroke-linejoin="round"/>
<path d="M1027.65 85.15C1027.65 85.15 1032.96 90.51 1034.72 92.63" stroke="black" stroke-linecap="round" stroke-linejoin="round"/>
<path d="M1059.75 158.16C1057.28 132.281 1045.07 108.306 1025.6 91.0825C1006.13 73.8587 980.845 64.6711 954.858 65.3773C928.871 66.0835 904.122 76.6309 885.614 94.8869C867.107 113.143 856.222 137.745 855.16 163.72C855.232 162.993 855.209 162.26 855.09 161.54C855.748 188.107 866.691 213.381 885.614 232.04C904.538 250.698 929.964 261.283 956.538 261.566C983.111 261.848 1008.76 251.806 1028.07 233.555C1047.39 215.303 1058.87 190.267 1060.09 163.72C1060.09 163.44 1060.09 163.15 1060.04 162.86C1059.88 161.25 1059.87 159.5 1059.75 158.16Z" fill="#FBB03B" stroke="black" stroke-linecap="round" stroke-linejoin="round"/>
<path d="M1020.71 110.23C1021.34 101.132 1019.77 92.0157 1016.14 83.65C998.571 71.412 977.598 65.0099 956.19 65.35C950.691 68.606 945.757 72.733 941.58 77.57C923.43 98.11 918.46 126.34 918.46 126.34L1002.68 171.53C1002.68 171.53 1019 139.74 1020.71 110.23Z" fill="#532E0F" stroke="black" stroke-linecap="round" stroke-linejoin="round"/>
<path d="M1008.88 124.17C1004.29 139.09 986.21 142.96 967.16 137.1C948.11 131.24 935.33 117.89 939.92 103C944.51 88.11 963.66 80.72 982.71 86.58C1001.76 92.44 1013.47 109.25 1008.88 124.17Z" fill="#C69D66" stroke="black" stroke-linecap="round" stroke-linejoin="round"/>
<path d="M997.65 117.91C988.73 115.3 991.65 105.32 979.75 101.22C971.81 98.48 963.02 103.22 963.02 103.22C953.68 105.44 953.02 97.22 945.25 93.92C942.803 96.4686 940.979 99.549 939.92 102.92C935.33 117.84 948.12 131.2 967.16 137.05C986.2 142.9 1004.29 139.05 1008.88 124.12C1009.44 122.329 1009.78 120.475 1009.88 118.6C1005.31 118.31 1001.81 119.13 997.65 117.91Z" fill="white" stroke="black" stroke-linecap="round" stroke-linejoin="round"/>
<path d="M995.84 78.3C996.26 78.4162 996.708 78.3794 997.103 78.1963C997.499 78.0132 997.817 77.6955 998 77.3L998.76 75.16C998.82 74.9154 998.827 74.6608 998.779 74.4134C998.732 74.1661 998.632 73.9319 998.485 73.7268C998.339 73.5217 998.15 73.3506 997.932 73.2252C997.714 73.0998 997.471 73.023 997.22 73C996.798 72.8893 996.352 72.9285 995.956 73.1109C995.56 73.2933 995.24 73.6076 995.05 74L994.3 76.14C994.24 76.3846 994.233 76.6392 994.281 76.8866C994.328 77.1339 994.428 77.3681 994.575 77.5732C994.721 77.7783 994.91 77.9494 995.128 78.0748C995.346 78.2002 995.589 78.277 995.84 78.3Z" fill="black"/>
<path d="M980.19 73.53C980.612 73.6407 981.058 73.6015 981.454 73.419C981.85 73.2366 982.17 72.9224 982.36 72.53L983.11 70.39C983.167 70.1468 983.171 69.8942 983.122 69.6493C983.073 69.4044 982.972 69.1728 982.826 68.9701C982.68 68.7674 982.493 68.5982 982.276 68.474C982.059 68.3498 981.819 68.2734 981.57 68.25C981.15 68.1338 980.702 68.1705 980.307 68.3537C979.911 68.5368 979.593 68.8544 979.41 69.25L978.65 71.39C978.593 71.6332 978.589 71.8857 978.638 72.1307C978.687 72.3756 978.788 72.6072 978.934 72.8099C979.08 73.0126 979.267 73.1818 979.484 73.306C979.701 73.4302 979.941 73.5065 980.19 73.53Z" fill="black"/>
<path d="M994.89 82.79C993.89 85.18 989.17 85.88 984.28 84.26C979.58 82.71 976.57 80.26 977.71 78.02C978.85 75.78 982.71 74.54 987.5 75.7C992.29 76.86 995.88 80.39 994.89 82.79Z" fill="#FFD9B0" stroke="black" stroke-linecap="round" stroke-linejoin="round"/>
<path d="M990.564 76.7918C990.755 76.0028 989.583 75.0416 987.946 74.645C986.309 74.2483 984.827 74.5664 984.636 75.3554C984.445 76.1444 985.617 77.1056 987.254 77.5023C988.891 77.8989 990.373 77.5809 990.564 76.7918Z" fill="#5B3C18" stroke="black" stroke-linecap="round" stroke-linejoin="round"/>
<path d="M974.5 75.35C974.5 75.35 970.58 72.8 967.17 73.35" stroke="black" stroke-linecap="round" stroke-linejoin="round"/>
<path d="M972.55 76.69C970.947 76.2816 969.304 76.0502 967.65 76" stroke="black" stroke-linecap="round" stroke-linejoin="round"/>
<path d="M999.48 82.37C999.48 82.37 1004.15 82.03 1006.86 84.18" stroke="black" stroke-linecap="round" stroke-linejoin="round"/>
<path d="M1000.53 84.49C1002.13 84.9053 1003.69 85.4955 1005.16 86.25" stroke="black" stroke-linecap="round" stroke-linejoin="round"/>
<path d="M988.81 106.16C988.417 105.956 988.112 105.617 987.95 105.205C987.788 104.793 987.781 104.337 987.93 103.92L988.8 101.55C988.887 101.309 989.024 101.089 989.203 100.905C989.381 100.721 989.597 100.577 989.835 100.482C990.073 100.388 990.329 100.345 990.585 100.357C990.841 100.368 991.091 100.434 991.32 100.55C991.717 100.747 992.026 101.084 992.188 101.496C992.351 101.908 992.355 102.365 992.2 102.78L991.33 105.16C991.242 105.4 991.104 105.619 990.925 105.802C990.746 105.985 990.531 106.129 990.293 106.223C990.056 106.317 989.801 106.36 989.545 106.35C989.289 106.339 989.039 106.274 988.81 106.16Z" fill="black"/>
<path d="M969.21 99.35C968.816 99.1477 968.51 98.808 968.35 98.3952C968.189 97.9824 968.186 97.5252 968.34 97.11L969.21 94.74C969.297 94.4989 969.434 94.2791 969.613 94.0951C969.791 93.911 970.007 93.767 970.245 93.6724C970.483 93.5779 970.739 93.535 970.995 93.5467C971.251 93.5583 971.501 93.6242 971.73 93.74C972.129 93.9427 972.438 94.2858 972.599 94.7031C972.759 95.1204 972.76 95.5824 972.6 96L971.73 98.37C971.641 98.6093 971.502 98.8271 971.323 99.0089C971.144 99.1908 970.928 99.3327 970.69 99.4253C970.452 99.5178 970.197 99.559 969.942 99.546C969.687 99.533 969.437 99.4662 969.21 99.35Z" fill="black"/>
<path d="M905.63 237.88C905.63 237.88 890 215.47 881.92 194.94C873.84 174.41 877.44 134.07 908.09 117.88C938.74 101.69 976.33 118.17 987.32 137.4C998.31 156.63 1012.63 185.87 1012.63 185.87C1012.63 185.87 971 226.17 905.63 237.88Z" fill="#1A1A1A" stroke="black" stroke-linecap="round" stroke-linejoin="round"/>
<path d="M992.129 162.259C992.389 155.879 988.722 150.55 983.938 150.354C979.154 150.159 975.064 155.172 974.803 161.551C974.542 167.93 978.21 173.259 982.994 173.455C987.778 173.65 991.868 168.638 992.129 162.259Z" fill="white" stroke="black" stroke-linecap="round" stroke-linejoin="round"/>
<path d="M1030.72 195C1031.01 191.39 1036.22 181.85 1029.72 176.35C1023.22 170.85 1003.84 176.5 1000.8 177.96C997.76 179.42 999.95 184.88 999.95 184.88C998.37 186.04 999.07 188.06 999.56 191.04C999.884 193.891 1000.01 196.761 999.94 199.63C993.86 200.5 987.07 208.74 987.07 208.74C984.18 208.59 983.45 210.47 977.53 211.79C971.61 213.11 965.66 214 965.66 214C965.66 214 961.17 214.35 954.38 219.77C947.59 225.19 926.09 237.91 926.09 237.91L923 256.12C934.736 260.331 947.143 262.365 959.61 262.12C978.52 261.75 996.79 256.7 1015.15 244.49L1009.66 235.13C1016.32 229.986 1022.06 223.763 1026.66 216.72C1034.48 204.85 1030.43 198.63 1030.72 195Z" fill="white" stroke="black" stroke-linecap="round" stroke-linejoin="round"/>
<path d="M958.3 213.65C953 216.32 949.94 220.92 951.45 223.92L951.56 224.13C953.08 227.13 958.56 227.4 963.89 224.72C969.22 222.04 972.25 217.45 970.74 214.45L970.63 214.24C969.12 211.24 963.59 211 958.3 213.65Z" fill="white" stroke="black" stroke-linecap="round" stroke-linejoin="round"/>
<path d="M953.24 222.12C954.41 224.44 958.7 224.65 962.81 222.57C966.92 220.49 969.3 216.93 968.12 214.57L962.73 203.91L947.85 211.42L953.24 222.12Z" fill="white" stroke="black" stroke-linecap="round" stroke-linejoin="round"/>
<path d="M895.24 187.25C904.62 179.71 936.95 155.59 973.71 149.52C974.663 149.359 975.642 149.511 976.502 149.953C977.362 150.394 978.056 151.102 978.48 151.97C981.36 157.97 986.91 172.03 982.72 185.47C977.23 203.11 957.82 216.53 934.14 218.47C911.14 220.31 898.34 200.78 894.14 192.83C893.643 191.918 893.481 190.86 893.682 189.841C893.883 188.822 894.434 187.905 895.24 187.25Z" fill="white" stroke="black" stroke-linecap="round" stroke-linejoin="round"/>
<path d="M934.59 182.84C934.59 182.84 940.88 177.33 948.1 176.36C948.1 176.36 949.91 179.36 949.03 182.19C948.15 185.02 945.03 187.19 941.25 187.46C936.65 187.84 934.59 182.84 934.59 182.84Z" fill="#A83131" stroke="black" stroke-linecap="round" stroke-linejoin="round"/>
<path d="M951.54 174.44C950.984 174.641 950.374 174.634 949.823 174.421C949.272 174.208 948.816 173.803 948.54 173.28L946.97 170.28C946.809 169.975 946.715 169.638 946.694 169.294C946.673 168.949 946.726 168.604 946.849 168.281C946.972 167.958 947.162 167.666 947.407 167.422C947.652 167.179 947.946 166.991 948.27 166.87C948.825 166.662 949.438 166.666 949.991 166.879C950.544 167.093 950.999 167.503 951.27 168.03L952.84 171.03C952.999 171.336 953.092 171.672 953.112 172.016C953.132 172.36 953.079 172.705 952.956 173.027C952.833 173.349 952.644 173.642 952.4 173.885C952.155 174.129 951.863 174.318 951.54 174.44Z" fill="black"/>
<path d="M929.27 185.71C928.716 185.916 928.105 185.913 927.553 185.702C927.001 185.49 926.544 185.084 926.27 184.56L924.7 181.56C924.541 181.254 924.449 180.918 924.429 180.574C924.41 180.23 924.464 179.886 924.588 179.564C924.712 179.243 924.903 178.951 925.148 178.709C925.393 178.467 925.687 178.28 926.01 178.16C926.564 177.954 927.175 177.957 927.727 178.168C928.279 178.38 928.736 178.786 929.01 179.31L930.58 182.31C930.737 182.616 930.828 182.952 930.847 183.295C930.865 183.639 930.811 183.983 930.687 184.304C930.564 184.625 930.373 184.916 930.129 185.158C929.885 185.401 929.592 185.589 929.27 185.71Z" fill="black"/>
<path d="M1005.42 181C1012.65 183.17 1020.42 179.71 1024.94 179.49C1029.46 179.27 1033.03 179.54 1029.71 176.37C1023.2 170.86 1003.83 176.52 1000.79 177.98C1000.67 178.044 1000.56 178.114 1000.45 178.19C1000.11 178.55 1000.23 179.43 1005.42 181Z" stroke="black" stroke-linecap="round" stroke-linejoin="round"/>
<path d="M1024.07 176.36C1024.07 171 1027.4 168.99 1029.85 159.74C1032.3 150.49 1032.17 132.56 1016.26 131.98C1000.35 131.4 1001.81 150.66 1001.81 150.66C1001.81 150.66 998.48 146.58 995 150.66C991.52 154.74 1000.94 164.66 1003.25 167.54C1004.62 169.218 1005.38 171.306 1005.42 173.47V181C1012.21 183 1019.51 180.11 1024.09 179.56C1024.08 178.5 1024.07 177.42 1024.07 176.36Z" fill="white" stroke="black" stroke-linecap="round" stroke-linejoin="round"/>
<path d="M936 259.82C935.956 257.545 935.554 255.291 934.81 253.14C931.21 242.29 928.37 238.96 926.11 233.32C923.85 227.68 917.45 228.93 914.22 230.17C910.99 231.41 896.81 239.34 896.81 239.34C896.159 239.75 895.546 240.218 894.98 240.74C907.055 250.087 921.072 256.607 936 259.82Z" fill="white" stroke="black" stroke-linecap="round" stroke-linejoin="round"/>
<path d="M902.15 245.82C905.605 243.269 909.256 240.995 913.07 239.02C924.29 233.22 925.5 231.69 922.07 229.49C919.38 228.64 916.17 229.41 914.18 230.17C910.95 231.41 896.77 239.34 896.77 239.34C896.121 239.753 895.508 240.221 894.94 240.74C897.28 242.533 899.683 244.227 902.15 245.82Z" fill="white" stroke="black" stroke-linecap="round" stroke-linejoin="round"/>
<path d="M999.93 199.64C999.667 201.084 999.809 202.572 1000.34 203.94" stroke="black" stroke-linecap="round" stroke-linejoin="round"/>
<path d="M981.16 106.36C980.96 107.16 979.36 108.08 977.78 107.61C976.2 107.14 975.25 105.46 975.45 104.61C975.65 103.76 976.98 103.98 978.55 104.45C980.12 104.92 981.35 105.56 981.16 106.36Z" fill="#5B3C18" stroke="black" stroke-linecap="round" stroke-linejoin="round"/>
<path d="M977.78 107.61C977.339 108.615 977.17 109.719 977.29 110.81C977.61 112.19 979.81 113.69 982.17 112.09" stroke="black" stroke-linecap="round" stroke-linejoin="round"/>
<path d="M977.31 109.29C977.003 109.934 976.467 110.44 975.808 110.712C975.148 110.983 974.411 111.001 973.74 110.76C973.288 110.659 972.869 110.448 972.519 110.144C972.17 109.84 971.902 109.454 971.74 109.02" stroke="black" stroke-linecap="round" stroke-linejoin="round"/>
<path d="M974.878 92.6703C975.281 92.2602 975.07 91.4011 974.407 90.7514C973.745 90.1018 972.882 89.9076 972.479 90.3177C972.077 90.7278 972.288 91.5869 972.951 92.2365C973.613 92.8862 974.476 93.0804 974.878 92.6703Z" fill="white"/>
<path d="M992.866 97.7561C992.899 97.1827 992.175 96.6745 991.249 96.6211C990.323 96.5677 989.545 96.9892 989.512 97.5627C989.479 98.1361 990.203 98.6442 991.129 98.6977C992.055 98.7511 992.833 98.3295 992.866 97.7561Z" fill="white"/>
<path d="M974.41 110.9C974.41 110.9 973.41 113.33 975.41 114.53C977.41 115.73 979 112.53 979 112.53C978.346 112.308 977.803 111.841 977.484 111.228C977.166 110.615 977.096 109.903 977.29 109.24C977.29 109.24 976.22 111.31 974.41 110.9Z" fill="#ED4F4F" stroke="black" stroke-linecap="round" stroke-linejoin="round"/>
<path d="M918.6 236L915 230.72C913.817 228.91 913.275 226.755 913.46 224.6C913.75 220.91 915.95 207.42 910.78 206C905.61 204.58 905.16 209.83 905.16 209.83C905.16 209.83 895.52 193.09 882.69 202.52C869.86 211.95 879.84 226.85 887.08 233.11C894.32 239.37 898.19 239.17 901.21 243.6L902.54 245.6C905.87 243.125 909.391 240.918 913.07 239C915.29 237.87 917.12 236.89 918.6 236Z" fill="white" stroke="black" stroke-linecap="round" stroke-linejoin="round"/>
<path d="M941.25 187.46C945.04 187.16 948.15 185.01 949.03 182.19C949.381 180.904 949.339 179.542 948.91 178.28C944.063 179.287 939.612 181.681 936.1 185.17C936.705 185.944 937.491 186.558 938.389 186.957C939.287 187.357 940.27 187.529 941.25 187.46Z" fill="#ED4F4F" stroke="black" stroke-linecap="round" stroke-linejoin="round"/>
<path d="M885.21 206.06C885.21 206.06 882.51 207.21 880.77 212.51C879.03 217.81 882.77 225.2 886.63 227.15C890.49 229.1 888.47 220.51 886.63 216.61C884.79 212.71 887.47 210.21 888.84 208.61C890.21 207.01 888.4 203.66 885.21 206.06Z" fill="#E6E6E6"/>
<path d="M908.29 208.32C907.787 208.622 907.392 209.074 907.159 209.611C906.926 210.149 906.867 210.747 906.99 211.32C907.47 213.25 909.2 212.68 909.78 214.22C910.36 215.76 911.89 217.31 912.28 215.77C912.67 214.23 912.77 206.4 908.29 208.32Z" fill="#E6E6E6"/>
<path d="M905.82 218.82C904.91 218.813 904.012 219.029 903.205 219.449C902.398 219.869 901.706 220.481 901.19 221.23C899.35 223.82 901.47 227.03 900.19 229.09C898.91 231.15 897.3 232.3 898.45 234.42C899.6 236.54 904.81 233.42 907.52 230.2C910.23 226.98 911.22 219.31 905.82 218.82Z" fill="#E6E6E6"/>
<path d="M1016.73 135.92C1016.73 135.92 1019.62 135.44 1023.94 138.92C1028.26 142.4 1029.08 150.69 1026.89 154.41C1024.7 158.13 1021.76 149.8 1021.2 145.54C1020.64 141.28 1017.05 140.54 1015.01 139.95C1012.97 139.36 1012.75 135.61 1016.73 135.92Z" fill="#E6E6E6"/>
<path d="M998.36 151C998.943 150.988 999.515 151.157 999.998 151.483C1000.48 151.809 1000.85 152.276 1001.06 152.82C1001.7 154.7 999.93 155.15 1000.27 156.76C1000.61 158.37 1000.15 160.5 998.99 159.41C997.83 158.32 993.55 151.82 998.36 151Z" fill="#E6E6E6"/>
<path d="M1006.09 158.55C1006.85 158.056 1007.73 157.756 1008.63 157.676C1009.54 157.596 1010.45 157.738 1011.29 158.09C1014.24 159.29 1014.18 163.09 1016.35 164.19C1018.52 165.29 1020.52 165.34 1020.69 167.75C1020.86 170.16 1014.76 170.29 1010.77 169.07C1006.78 167.85 1001.81 161.87 1006.09 158.55Z" fill="#E6E6E6"/>
<path d="M940.15 112C940.15 116.23 935.07 119.67 928.8 119.67C922.53 119.67 917.46 116.23 917.46 112C917.46 107.77 922.54 106 928.8 106C935.06 106 940.15 107.73 940.15 112Z" fill="#532E0F" stroke="black" stroke-linecap="round" stroke-linejoin="round"/>
<path d="M996.54 145.59C993.7 148.59 987.7 147.59 983.13 143.32C978.56 139.05 977.13 133.11 979.98 130.08C982.83 127.05 987.73 129.23 992.31 133.51C996.89 137.79 999.37 142.56 996.54 145.59Z" fill="#532E0F" stroke="black" stroke-linecap="round" stroke-linejoin="round"/>
<g opacity="0.3">
<path d="M959.56 258.49C984.733 258.001 1008.77 247.921 1026.76 230.308C1044.76 212.695 1055.35 188.877 1056.37 163.72C1056.37 163.45 1056.37 163.17 1056.32 162.89C1056.13 161.34 1056.12 159.66 1056 158.36C1055.29 150.895 1053.74 143.534 1051.37 136.42L932.51 255.28C941.335 257.596 950.438 258.676 959.56 258.49Z" fill="white"/>
<path d="M1039.7 112.7L907.53 244.87C911.565 247.242 915.762 249.327 920.09 251.11L1046.57 124.64C1044.56 120.507 1042.26 116.517 1039.7 112.7Z" fill="white"/>
<path opacity="0.6" d="M955.72 69C930.55 69.4912 906.516 79.5711 888.526 97.1819C870.537 114.793 859.947 138.606 858.92 163.76C858.992 163.06 858.969 162.354 858.85 161.66C858.959 167.12 859.514 172.561 860.51 177.93L968.83 69.57C964.477 69.0926 960.098 68.9022 955.72 69Z" fill="white"/>
</g>
</g>
<defs>
<radialGradient id="paint0_radial_10_708" cx="0" cy="0" r="1" gradientUnits="userSpaceOnUse" gradientTransform="translate(1964.73 123.458) rotate(155.785) scale(76.4307 76.338)">
<stop offset="0.05" stop-color="white"/>
<stop offset="1" stop-color="#002266" stop-opacity="0"/>
</radialGradient>
<radialGradient id="paint1_radial_10_708" cx="0" cy="0" r="1" gradientUnits="userSpaceOnUse" gradientTransform="translate(1655.39 90.6455) rotate(155.785) scale(14.0689 14.0518)">
<stop offset="0.05" stop-color="white"/>
<stop offset="1" stop-color="#002266" stop-opacity="0"/>
</radialGradient>
<radialGradient id="paint2_radial_10_708" cx="0" cy="0" r="1" gradientUnits="userSpaceOnUse" gradientTransform="translate(1730.12 119.715) rotate(155.785) scale(76.4307 76.338)">
<stop offset="0.05" stop-color="white"/>
<stop offset="1" stop-color="#002266" stop-opacity="0"/>
</radialGradient>
<radialGradient id="paint3_radial_10_708" cx="0" cy="0" r="1" gradientUnits="userSpaceOnUse" gradientTransform="translate(164.996 107.837) rotate(155.785) scale(7.03442 7.02588)">
<stop offset="0.05" stop-color="white"/>
<stop offset="1" stop-color="#002266" stop-opacity="0"/>
</radialGradient>
<radialGradient id="paint4_radial_10_708" cx="0" cy="0" r="1" gradientUnits="userSpaceOnUse" gradientTransform="translate(39.5103 141.531) rotate(155.785) scale(28.5268 28.4922)">
<stop offset="0.05" stop-color="white"/>
<stop offset="1" stop-color="#002266" stop-opacity="0"/>
</radialGradient>
<radialGradient id="paint5_radial_10_708" cx="0" cy="0" r="1" gradientUnits="userSpaceOnUse" gradientTransform="translate(235.573 113.27) rotate(155.785) scale(39.4626 39.4147)">
<stop offset="0.05" stop-color="white"/>
<stop offset="1" stop-color="#FF52AA" stop-opacity="0"/>
</radialGradient>
<radialGradient id="paint6_radial_10_708" cx="0" cy="0" r="1" gradientUnits="userSpaceOnUse" gradientTransform="translate(443.182 87.9143) rotate(155.785) scale(28.5268 28.4922)">
<stop offset="0.05" stop-color="white"/>
<stop offset="1" stop-color="#002266" stop-opacity="0"/>
</radialGradient>
<radialGradient id="paint7_radial_10_708" cx="0" cy="0" r="1" gradientUnits="userSpaceOnUse" gradientTransform="translate(-13.2022 115.868) rotate(155.785) scale(43.4438 43.3911)">
<stop offset="0.05" stop-color="white"/>
<stop offset="1" stop-color="#002266" stop-opacity="0"/>
</radialGradient>
<radialGradient id="paint8_radial_10_708" cx="0" cy="0" r="1" gradientUnits="userSpaceOnUse" gradientTransform="translate(1238.16 65.2581) rotate(155.785) scale(14.0389 14.0219)">
<stop offset="0.05" stop-color="white"/>
<stop offset="1" stop-color="#002266" stop-opacity="0"/>
</radialGradient>
<radialGradient id="paint9_radial_10_708" cx="0" cy="0" r="1" gradientUnits="userSpaceOnUse" gradientTransform="translate(1405.42 124.038) rotate(155.785) scale(14.0389 14.0219)">
<stop offset="0.05" stop-color="white"/>
<stop offset="1" stop-color="#002266" stop-opacity="0"/>
</radialGradient>
<radialGradient id="paint10_radial_10_708" cx="0" cy="0" r="1" gradientUnits="userSpaceOnUse" gradientTransform="translate(1867.06 106.744) rotate(155.785) scale(28.5269 28.4922)">
<stop offset="0.05" stop-color="white"/>
<stop offset="1" stop-color="#002266" stop-opacity="0"/>
</radialGradient>
<clipPath id="clip0_10_708">
<rect width="1920" height="301" fill="white"/>
</clipPath>
</defs>
</svg>
