<svg width="60" height="60" viewBox="0 0 60 60" fill="none" xmlns="http://www.w3.org/2000/svg">
<path d="M60 29.9847C60 13.4246 46.5685 0 30 0C13.4315 0 0 13.4246 0 29.9847C0 46.5448 13.4315 59.9695 30 59.9695C46.5685 59.9695 60 46.5448 60 29.9847Z" fill="#B99E89" stroke="black" stroke-width="0.7" stroke-linecap="round" stroke-linejoin="round"/>
<path d="M35.971 55.8715C34.4364 55.9041 32.9234 55.5066 31.6031 54.7241C30.2829 53.9416 29.2083 52.805 28.501 51.4435L29.281 49.9248C30.0782 51.2404 31.1656 52.3563 32.4602 53.1878C33.7548 54.0192 35.2225 54.5441 36.751 54.7221L35.971 55.8715Z" fill="#2A7E99" stroke="black" stroke-width="0.7" stroke-linecap="round" stroke-linejoin="round"/>
<path d="M40.6514 16.8314C41.113 16.3346 41.7388 16.0216 42.4134 15.95C43.0879 15.8783 43.7656 16.0532 44.3214 16.4419C46.3214 17.8712 44.7714 20.7796 44.7714 20.7796L40.6514 16.8314Z" fill="#592C05" stroke="black" stroke-width="0.7" stroke-linecap="round" stroke-linejoin="round"/>
<path d="M24.57 14.2038C8.96005 17.1523 5.85003 34.3835 5.89003 47.8566C8.67978 51.6231 12.314 54.6835 16.501 56.7925C20.6881 58.9014 25.3114 60 30 60.0003C34.1699 60.0013 38.2942 59.1336 42.1097 57.4523C45.9252 55.7709 49.3482 53.3128 52.16 50.2353C52.44 42.869 51.82 33.3042 50.8 29.776C48.38 21.3203 42.22 10.8355 24.57 14.2038Z" fill="#592C05" stroke="black" stroke-width="0.7" stroke-linecap="round" stroke-linejoin="round"/>
<path d="M16.12 20.0803C16.12 20.0803 13.6701 18.4414 11.9101 19.8607C11.635 20.1027 11.4117 20.3975 11.2536 20.7279C11.0954 21.0583 11.0057 21.4176 10.9899 21.7835C10.974 22.1494 11.0322 22.5148 11.1612 22.8577C11.2901 23.2005 11.487 23.5137 11.74 23.7786" fill="#592C05"/>
<path d="M16.12 20.0803C16.12 20.0803 13.6701 18.4414 11.9101 19.8607C11.635 20.1027 11.4117 20.3975 11.2536 20.7279C11.0954 21.0583 11.0057 21.4176 10.9899 21.7835C10.974 22.1494 11.0322 22.5148 11.1612 22.8577C11.2901 23.2005 11.487 23.5137 11.74 23.7786" stroke="black" stroke-width="0.7" stroke-linecap="round" stroke-linejoin="round"/>
<path d="M30.7496 21.9191C30.5095 21.9563 30.2637 21.9228 30.0419 21.8235C29.8201 21.7242 29.6318 21.5632 29.4996 21.3594L28.9196 20.2798C28.6696 19.8101 28.9696 19.3303 29.5596 19.2803C29.7999 19.2419 30.0461 19.2741 30.2681 19.3736C30.4902 19.473 30.6784 19.6354 30.8096 19.8401L31.3996 20.9196C31.6496 21.3494 31.3396 21.8292 30.7496 21.9191Z" fill="black"/>
<path d="M38.7494 20.8391C38.5058 20.883 38.2547 20.8573 38.0248 20.7654C37.7949 20.6735 37.5955 20.5191 37.4494 20.3194L36.7694 19.2598C36.4794 18.8001 36.7694 18.2603 37.3294 18.2003C37.573 18.1587 37.8233 18.1852 38.0528 18.2769C38.2822 18.3687 38.4818 18.5221 38.6294 18.7201L39.3094 19.7893C39.5994 20.1991 39.3394 20.7392 38.7494 20.8391Z" fill="black"/>
<path d="M31.2105 24.288C31.5505 25.5873 33.9305 26.2869 36.5405 25.7872C39.1505 25.2874 40.7705 24.2782 40.3405 23.0488C39.9105 21.8195 38.0405 20.9198 35.4905 21.1797C32.9405 21.4395 30.8705 22.9886 31.2105 24.288Z" fill="#FFD6A9" stroke="black" stroke-width="0.7" stroke-linecap="round" stroke-linejoin="round"/>
<path d="M36.5669 22.2357C37.4349 22.1467 38.1038 21.7357 38.061 21.3182C38.0181 20.9007 37.2797 20.6346 36.4116 20.7236C35.5436 20.8127 34.8746 21.2231 34.9175 21.6407C34.9603 22.0582 35.6988 22.3248 36.5669 22.2357Z" fill="#603A0E" stroke="black" stroke-width="0.7" stroke-linecap="round" stroke-linejoin="round"/>
<path d="M30.0012 23.4589C28.2185 23.1476 26.3845 23.3345 24.7012 23.9989" stroke="black" stroke-width="0.7" stroke-linecap="round" stroke-linejoin="round"/>
<path d="M29.0293 24.4192C28.1704 24.5845 27.3412 24.8774 26.5693 25.2888" stroke="black" stroke-width="0.7" stroke-linecap="round" stroke-linejoin="round"/>
<path d="M41.1904 22.3089C42.1484 21.8458 43.2079 21.6329 44.2704 21.6892" stroke="black" stroke-width="0.7" stroke-linecap="round" stroke-linejoin="round"/>
<path d="M42.1504 23.0683C42.7287 22.8796 43.3521 22.8796 43.9304 23.0683" stroke="black" stroke-width="0.7" stroke-linecap="round" stroke-linejoin="round"/>
<path d="M34.8702 28.9544C38.1402 28.1748 41.9402 27.955 44.6202 29.0544C50.1102 31.2433 50.2502 36.331 50.4702 38.8297C50.5748 40.4549 50.3076 42.0824 49.6891 43.589C49.0705 45.0957 48.1168 46.4417 46.9002 47.525C43.7299 50.0209 39.9557 51.6348 35.9602 52.2028C24.6902 53.9619 21.3402 48.2047 21.5502 41.2782C21.7602 34.3517 28.1302 30.5536 34.8702 28.9544Z" fill="#CD9A5D" stroke="black" stroke-width="0.7" stroke-linecap="round" stroke-linejoin="round"/>
<path d="M34.8722 34.4051C34.9543 34.1705 34.7168 33.874 34.3414 33.7428C33.9661 33.6115 33.595 33.6953 33.5129 33.9298C33.4308 34.1644 33.6688 34.461 34.0441 34.5923C34.4195 34.7235 34.7901 34.6396 34.8722 34.4051Z" fill="white"/>
<path d="M42.3174 32.459C42.6191 32.2 42.7323 31.8371 42.5704 31.6486C42.4084 31.4601 42.0327 31.5174 41.731 31.7764C41.4292 32.0354 41.3157 32.3979 41.4776 32.5864C41.6396 32.7749 42.0156 32.718 42.3174 32.459Z" fill="white"/>
<path d="M33.7694 52.463C33.2094 52.463 32.6694 52.5231 32.1594 52.5231H32.0594C24.6994 52.5231 21.9394 48.2754 21.6094 42.9981C25.5494 41.339 29.5294 42.0786 31.9494 41.5389C35.0594 40.8493 36.3894 38.2507 39.6094 37.3711C40.8547 37.0227 42.1805 37.0964 43.3794 37.581C46.3094 38.5805 47.6294 35.732 49.8994 35.1423C50.215 36.3497 50.4126 37.5848 50.4894 38.8303C50.5939 40.4555 50.3268 42.083 49.7083 43.5896C49.0897 45.0963 48.1359 46.4422 46.9194 47.5256C43.7474 50.0205 39.9744 51.6372 35.9794 52.2132C35.2894 52.3131 34.6294 52.393 33.9794 52.443L33.7694 52.463Z" fill="white" stroke="black" stroke-width="0.7" stroke-linecap="round" stroke-linejoin="round"/>
<path d="M38.3313 39.4798C38.4833 39.7832 38.7357 40.0248 39.0456 40.1634C39.3555 40.3019 39.7037 40.3286 40.0313 40.2395C40.3716 40.1662 40.6802 39.9877 40.9135 39.7293C41.1468 39.4709 41.293 39.1456 41.3313 38.7996C41.2513 38.3796 40.5613 38.4297 39.7413 38.6097C38.9213 38.7897 38.2613 39.0598 38.3313 39.4798Z" fill="#603A0E" stroke="black" stroke-width="0.7" stroke-linecap="round" stroke-linejoin="round"/>
<path d="M40.0312 40.2393C40.2594 41.0308 40.3441 41.8571 40.2812 42.6785C40.1528 42.9465 39.9629 43.1803 39.727 43.3612C39.4911 43.5421 39.2157 43.6649 38.9234 43.7194C38.6311 43.774 38.3301 43.7587 38.0447 43.675C37.7594 43.5914 37.4978 43.4414 37.2812 43.2377" stroke="black" stroke-width="0.7" stroke-linecap="round" stroke-linejoin="round"/>
<path d="M40.3203 41.8996C40.4129 42.2679 40.6453 42.5855 40.9683 42.7853C41.2913 42.9851 41.6794 43.0511 42.0503 42.9694C42.3101 42.9089 42.5513 42.7866 42.7534 42.6125C42.9554 42.4383 43.1122 42.2174 43.2103 41.9694" stroke="black" stroke-width="0.7" stroke-linecap="round" stroke-linejoin="round"/>
<path d="M34.6906 39.0106C34.912 38.9605 35.1074 38.8316 35.24 38.6475C35.3726 38.4634 35.4333 38.2368 35.4106 38.0111L35.2806 36.7119C35.2671 36.5803 35.2256 36.4529 35.159 36.3386C35.0923 36.2242 35.002 36.1258 34.8941 36.0492C34.7862 35.9725 34.6631 35.9198 34.5332 35.8945C34.4032 35.8692 34.2694 35.8717 34.1406 35.9023C33.9181 35.9504 33.7214 36.0793 33.5885 36.2639C33.4555 36.4485 33.3956 36.6757 33.4206 36.9018L33.5506 38.2009C33.5656 38.3319 33.6081 38.4583 33.6752 38.5718C33.7422 38.6853 33.8325 38.7834 33.94 38.8598C34.0475 38.9361 34.1699 38.989 34.2992 39.0149C34.4286 39.0409 34.5619 39.0395 34.6906 39.0106Z" fill="black"/>
<path d="M43.1504 36.7119C43.3747 36.6659 43.5738 36.538 43.7088 36.3532C43.8438 36.1683 43.905 35.9399 43.8804 35.7124L43.7504 34.4132C43.7367 34.2814 43.6952 34.1536 43.6287 34.0389C43.5621 33.9242 43.472 33.825 43.3644 33.7476C43.2567 33.6702 43.1338 33.6165 43.0039 33.5899C42.874 33.5634 42.7398 33.5644 42.6104 33.5934C42.389 33.6434 42.1936 33.7728 42.061 33.9569C41.9284 34.141 41.8677 34.3671 41.8904 34.5928L42.0204 35.8925C42.0328 36.0239 42.0731 36.1511 42.1386 36.2658C42.204 36.3805 42.2932 36.4796 42.4001 36.5572C42.507 36.6347 42.6292 36.6887 42.7586 36.7153C42.888 36.7419 43.0215 36.7409 43.1504 36.7119Z" fill="black"/>
</svg>
