<svg width="62" height="62" viewBox="0 0 62 62" fill="none" xmlns="http://www.w3.org/2000/svg">
<path d="M31 60.9699C47.5685 60.9699 61 47.5452 61 30.985C61 14.4247 47.5685 1.00002 31 1.00002C14.4315 1.00002 1 14.4247 1 30.985C1 47.5452 14.4315 60.9699 31 60.9699Z" fill="#FB7798"/>
<path d="M46.9224 46.0824C47.0499 45.1453 48.8499 40.1828 46.8849 35.1903C44.9199 30.1978 14.3649 29.6056 14.3649 29.6056C13.4362 33.0267 12.9645 36.5556 12.9624 40.1004C13.0374 44.5531 12.8724 50.9249 12.2124 54.3432C17.5414 58.6585 24.194 61.009 31.0524 60.9999C36.655 61.0171 42.1493 59.4585 46.9074 56.5021C47.1802 55.073 47.2081 53.6078 46.9899 52.1693C47.2915 52.5233 47.5025 52.9452 47.6049 53.3987C47.8269 53.0421 47.9446 52.6305 47.9446 52.2106C47.9446 51.7906 47.8269 51.3789 47.6049 51.0223C46.7724 49.7555 46.7724 47.0344 46.9224 46.0824Z" fill="#221E1C" stroke="black" stroke-width="0.7" stroke-linecap="round" stroke-linejoin="round"/>
<path d="M43.4425 53.0314C43.0754 52.3986 42.5608 51.8637 41.9425 51.4722L37.225 51.3523C36.7074 51.6491 36.2535 52.045 35.8892 52.5174C35.525 52.9898 35.2575 53.5294 35.1022 54.1053C34.9468 54.6811 34.9066 55.2819 34.9839 55.8733C35.0612 56.4647 35.2544 57.035 35.5525 57.5517L37.1575 60.3403C40.1743 59.7089 43.0741 58.6113 45.7525 57.0869L43.4425 53.0314Z" fill="white" stroke="black" stroke-width="0.7" stroke-linecap="round" stroke-linejoin="round"/>
<path d="M42.3326 51.3148C40.6595 50.2363 38.6613 49.7775 36.685 50.018L24.1825 51.5697C22.5667 51.7708 21.0659 52.5105 19.9227 53.6694C18.7795 54.8284 18.0608 56.3387 17.8826 57.9564C21.9701 59.9398 26.4563 60.9653 31.0001 60.9549C35.8265 60.957 40.5817 59.792 44.86 57.5592V55.9475C44.8574 55.0261 44.6249 54.1199 44.1836 53.311C43.7423 52.5021 43.1061 51.816 42.3326 51.3148Z" fill="white" stroke="black" stroke-width="0.7" stroke-linecap="round" stroke-linejoin="round"/>
<path d="M31.8474 53.3387C31.0518 53.3387 30.2887 53.0229 29.7261 52.4606C29.1635 51.8982 28.8474 51.1355 28.8474 50.3403V48.0914C28.8474 47.8767 28.9328 47.6707 29.0847 47.5189C29.2366 47.3671 29.4426 47.2818 29.6574 47.2818H34.2549C34.4698 47.2818 34.6758 47.3671 34.8277 47.5189C34.9796 47.6707 35.0649 47.8767 35.0649 48.0914V50.1378C35.0532 50.9857 34.71 51.7954 34.1087 52.3936C33.5074 52.9918 32.6958 53.331 31.8474 53.3387Z" fill="white" stroke="black" stroke-width="0.7" stroke-linecap="round" stroke-linejoin="round"/>
<path d="M32.6726 50.7825C36.3883 50.7825 39.9518 49.3073 42.5791 46.6812C45.2065 44.0551 46.6826 40.4933 46.6826 36.7795V32.2818C46.6826 25.2503 41.0651 20.7526 34.0676 20.6327C33.8863 20.6335 33.7079 20.5869 33.5501 20.4977L31.8401 19.5382C31.6633 19.4336 31.4604 19.3816 31.2551 19.3883C27.8874 19.4686 24.6847 20.8623 22.3316 23.2717C19.9785 25.681 18.6616 28.9148 18.6626 32.2818V36.7795C18.6626 38.6184 19.025 40.4393 19.7291 42.1383C20.4331 43.8372 21.4651 45.3809 22.766 46.6812C24.067 47.9815 25.6114 49.0129 27.3112 49.7167C29.011 50.4204 30.8328 50.7825 32.6726 50.7825Z" fill="white" stroke="black" stroke-width="0.7" stroke-linecap="round" stroke-linejoin="round"/>
<path d="M42.1375 39.7031C42.4617 39.6662 42.761 39.5113 42.9782 39.2679C43.1953 39.0246 43.3153 38.7098 43.315 38.3837V36.5397C43.3156 36.3505 43.2756 36.1635 43.1979 35.9911C43.1202 35.8186 43.0065 35.6648 42.8645 35.5399C42.7224 35.4149 42.5553 35.3217 42.3743 35.2666C42.1933 35.2115 42.0026 35.1957 41.815 35.2203C41.4922 35.2589 41.1948 35.4145 40.9791 35.6577C40.7634 35.9009 40.6446 36.2147 40.645 36.5397V38.3987C40.6467 38.5858 40.6881 38.7705 40.7662 38.9405C40.8444 39.1106 40.9577 39.2622 41.0987 39.3854C41.2396 39.5086 41.405 39.6005 41.5841 39.6553C41.7631 39.71 41.9517 39.7263 42.1375 39.7031Z" fill="black"/>
<path d="M33.8424 40.4827C34.1653 40.4441 34.4627 40.2885 34.6784 40.0453C34.894 39.8021 35.0129 39.4883 35.0124 39.1633V37.2893C35.013 37.1002 34.973 36.9131 34.8953 36.7407C34.8177 36.5683 34.704 36.4144 34.562 36.2895C34.4199 36.1645 34.2527 36.0713 34.0717 36.0162C33.8907 35.9611 33.7001 35.9454 33.5124 35.9699C33.1896 36.0085 32.8922 36.1642 32.6765 36.4073C32.4609 36.6505 32.342 36.9643 32.3424 37.2893V39.1483C32.3385 39.3391 32.376 39.5285 32.4523 39.7033C32.5286 39.8782 32.642 40.0344 32.7846 40.1612C32.9272 40.2881 33.0956 40.3825 33.2782 40.438C33.4608 40.4935 33.6534 40.5087 33.8424 40.4827Z" fill="black"/>
<path d="M26.3501 38.3762C26.0783 37.914 25.6792 37.5397 25.2005 37.2978C24.7218 37.0559 24.1836 36.9566 23.6501 37.0119C22.1126 37.2593 21.1226 39.0209 21.4001 40.9399C21.6776 42.859 23.2076 44.2158 24.7451 43.9384C25.3383 43.8417 25.8735 43.526 26.2451 43.0538" fill="white"/>
<path d="M26.3501 38.3762C26.0783 37.914 25.6792 37.5397 25.2005 37.2978C24.7218 37.0559 24.1836 36.9566 23.6501 37.0119C22.1126 37.2593 21.1226 39.0209 21.4001 40.9399C21.6776 42.859 23.2076 44.2158 24.7451 43.9384C25.3383 43.8417 25.8735 43.526 26.2451 43.0538" stroke="black" stroke-width="0.7" stroke-linecap="round" stroke-linejoin="round"/>
<path d="M13.39 34.2908C14.5675 25.4528 18.2575 19.1034 27.265 17.964C27.265 17.964 45.9175 14.3734 47.4625 32.3568C47.9114 37.0111 47.0078 41.6961 44.86 45.8501C46.195 41.5772 46.24 35.835 44.7325 33.3388C42.805 30.1379 43.075 28.1739 41.305 26.2099C39.535 24.2459 37.15 26.2099 37.15 26.2099C37.15 26.2099 34.3675 24.5008 32.65 26.6372C30.9325 28.7736 28.39 31.0075 28.15 35.955C27.91 40.9025 27.7525 42.2669 27.1 43.9685C26.9247 44.5122 26.8823 45.0898 26.9762 45.6532C27.0702 46.2167 27.2978 46.7494 27.64 47.2068C27.64 47.2068 25.675 46.2323 25.585 44.3133C25.495 42.3943 26.0125 42.1319 25.93 40.4677C25.8475 38.8036 26.0125 37.2144 24.0925 36.9595C24.0925 36.9595 21.7375 36.8171 21.37 39.958C21.37 39.958 21.37 42.7166 23.5225 43.7661C23.5225 43.7661 22.84 46.2773 23.38 47.7766C23.92 49.2758 22.5701 51.9145 22.5701 51.9145" fill="#221E1C"/>
<path d="M13.39 34.2908C14.5675 25.4528 18.2575 19.1034 27.265 17.964C27.265 17.964 45.9175 14.3734 47.4625 32.3568C47.9114 37.0111 47.0078 41.6961 44.86 45.8501C46.195 41.5772 46.24 35.835 44.7325 33.3388C42.805 30.1379 43.075 28.1739 41.305 26.2099C39.535 24.2459 37.15 26.2099 37.15 26.2099C37.15 26.2099 34.3675 24.5008 32.65 26.6372C30.9325 28.7736 28.39 31.0075 28.15 35.955C27.91 40.9025 27.7525 42.2669 27.1 43.9685C26.9247 44.5122 26.8823 45.0898 26.9762 45.6532C27.0702 46.2167 27.2978 46.7494 27.64 47.2068C27.64 47.2068 25.675 46.2323 25.585 44.3133C25.495 42.3943 26.0125 42.1319 25.93 40.4677C25.8475 38.8036 26.0125 37.2144 24.0925 36.9595C24.0925 36.9595 21.7375 36.8171 21.37 39.958C21.37 39.958 21.37 42.7166 23.5225 43.7661C23.5225 43.7661 22.84 46.2773 23.38 47.7766C23.92 49.2758 22.5701 51.9145 22.5701 51.9145" stroke="black" stroke-width="0.7" stroke-linecap="round" stroke-linejoin="round"/>
<path d="M39.865 16.2998C39.865 16.2998 43.615 17.5967 44.8225 18.5487C46.03 19.5007 44.95 20.4452 44.3125 20.5726C43.675 20.7001 42.9325 20.7451 42.6175 21.2548C42.3025 21.7646 43.1575 22.8365 41.365 23.5037C39.5725 24.1709 38.545 22.3118 37.3075 22.4767C36.07 22.6416 36.025 24.5307 33.8875 24.6581C31.75 24.7856 31.8775 23.1214 30.5125 22.994C29.1475 22.8666 28.375 24.8305 26.5 24.2758C24.625 23.7211 25.2625 21.7945 24.3625 21.4122C23.4625 21.0299 22.1125 22.5966 20.7925 21.877C19.4725 21.1573 20.935 19.4932 20.7925 19.1034C20.65 18.7136 18.7675 19.4182 18.595 18.5337C18.4225 17.6491 23.68 16.2848 23.68 16.2848L39.865 16.2998Z" fill="#FF001E" stroke="black" stroke-width="0.7" stroke-linecap="round" stroke-linejoin="round"/>
<path d="M22.3674 14.4708C22.3674 19.6057 26.5374 20.925 31.6674 20.925C36.7974 20.925 40.9674 19.6057 40.9674 14.4708C40.9674 12.0055 39.9876 9.64115 38.2435 7.89794C36.4994 6.15473 34.1339 5.17543 31.6674 5.17543C29.2009 5.17543 26.8354 6.15473 25.0913 7.89794C23.3472 9.64115 22.3674 12.0055 22.3674 14.4708Z" fill="#FF001E" stroke="black" stroke-width="0.7" stroke-linecap="round" stroke-linejoin="round"/>
<path d="M31.6825 18.1896C32.2293 18.1896 32.6725 17.8907 32.6725 17.5221C32.6725 17.1534 32.2293 16.8546 31.6825 16.8546C31.1357 16.8546 30.6925 17.1534 30.6925 17.5221C30.6925 17.8907 31.1357 18.1896 31.6825 18.1896Z" fill="#FFC6C4"/>
<path d="M38.8076 17.6182C39.3524 17.5719 39.7687 17.2366 39.7375 16.8693C39.7062 16.502 39.2393 16.2417 38.6945 16.288C38.1497 16.3343 37.7333 16.6696 37.7646 17.037C37.7958 17.4043 38.2628 17.6645 38.8076 17.6182Z" fill="#FFC6C4"/>
<path d="M37.8701 17.1844C38.053 17.1623 38.2214 17.0737 38.3432 16.9354C38.4649 16.7972 38.5314 16.6189 38.5301 16.4348V15.3853C38.5308 15.2795 38.509 15.1748 38.4663 15.078C38.4235 14.9812 38.3608 14.8946 38.2821 14.8238C38.2035 14.753 38.1107 14.6996 38.01 14.6671C37.9093 14.6347 37.8028 14.624 37.6976 14.6357C37.5147 14.6578 37.3463 14.7464 37.2246 14.8847C37.1028 15.0229 37.0363 15.2011 37.0376 15.3853V16.4348C37.037 16.5406 37.0587 16.6453 37.1015 16.7421C37.1442 16.8388 37.207 16.9255 37.2856 16.9963C37.3642 17.0671 37.457 17.1204 37.5577 17.1528C37.6585 17.1853 37.7649 17.196 37.8701 17.1844Z" fill="black"/>
<path d="M33.205 17.6191C33.3879 17.597 33.5563 17.5084 33.678 17.3701C33.7998 17.2319 33.8663 17.0537 33.865 16.8695V15.8275C33.8656 15.7217 33.8438 15.617 33.8011 15.5202C33.7583 15.4235 33.6956 15.3368 33.617 15.266C33.5383 15.1952 33.4456 15.1419 33.3449 15.1095C33.2441 15.077 33.1377 15.0663 33.0325 15.0779C32.8495 15.1 32.6811 15.1886 32.5594 15.3269C32.4377 15.4652 32.3711 15.6434 32.3725 15.8275V16.8695C32.3718 16.9753 32.3936 17.08 32.4364 17.1768C32.4791 17.2736 32.5418 17.3602 32.6205 17.431C32.6991 17.5018 32.7918 17.5551 32.8926 17.5876C32.9933 17.62 33.0998 17.6308 33.205 17.6191Z" fill="black"/>
<path d="M36.145 17.1844C36.145 17.1844 36.2125 18.1144 35.5225 18.1819C34.8325 18.2494 34.93 17.4319 34.93 17.4319" fill="#FF0000"/>
<path d="M36.145 17.1844C36.145 17.1844 36.2125 18.1144 35.5225 18.1819C34.8325 18.2494 34.93 17.4319 34.93 17.4319" stroke="black" stroke-width="0.7" stroke-linecap="round" stroke-linejoin="round"/>
<path d="M43.42 32.874C42.4303 32.8154 41.442 33.0089 40.5475 33.4365L43.42 32.874Z" fill="#E1E1E1"/>
<path d="M43.42 32.874C42.4303 32.8154 41.442 33.0089 40.5475 33.4365" stroke="#212020" stroke-width="1.1" stroke-linecap="round" stroke-linejoin="round"/>
<path d="M35.1475 33.946C33.9403 33.6611 32.6763 33.734 31.51 34.156L35.1475 33.946Z" fill="#E1E1E1"/>
<path d="M35.1475 33.946C33.9403 33.6611 32.6763 33.734 31.51 34.156" stroke="#212020" stroke-width="1.1" stroke-linecap="round" stroke-linejoin="round"/>
<path d="M23.4175 53.0314C22.8315 52.9142 22.2281 52.9149 21.6423 53.0334C21.0566 53.1519 20.5004 53.3857 20.0061 53.7213C19.5118 54.057 19.0893 54.4877 18.7633 54.9883C18.4374 55.489 18.2144 56.0495 18.1075 56.6371L17.86 57.9264C20.6108 59.2703 23.5531 60.1806 26.5825 60.6251L27.025 58.3387C27.1566 57.6281 27.1207 56.8966 26.92 56.2023" fill="white"/>
<path d="M23.4175 53.0314C22.8315 52.9142 22.2281 52.9149 21.6423 53.0334C21.0566 53.1519 20.5004 53.3857 20.0061 53.7213C19.5118 54.057 19.0893 54.4877 18.7633 54.9883C18.4374 55.489 18.2144 56.0495 18.1075 56.6371L17.86 57.9264C20.6108 59.2703 23.5531 60.1806 26.5825 60.6251L27.025 58.3387C27.1566 57.6281 27.1207 56.8966 26.92 56.2023" stroke="black" stroke-width="0.7" stroke-linecap="round" stroke-linejoin="round"/>
<path d="M40.975 50.2802C40.4871 50.1432 39.9818 50.0776 39.475 50.0853C39.475 50.0853 41.2525 51.9445 38.725 58.6761C38.5525 59.1408 38.3725 59.6056 38.17 60.0854C39.0625 59.868 39.9401 59.6056 40.8026 59.3358C41.2717 58.1538 41.6429 56.9353 41.9125 55.6926C42.655 51.8995 41.6725 50.5126 40.975 50.2802Z" fill="#4D4D4D" stroke="black" stroke-width="0.7" stroke-linecap="round" stroke-linejoin="round"/>
<path d="M31 60.9699C47.5685 60.9699 61 47.5452 61 30.985C61 14.4247 47.5685 1.00002 31 1.00002C14.4315 1.00002 1 14.4247 1 30.985C1 47.5452 14.4315 60.9699 31 60.9699Z" stroke="black" stroke-miterlimit="10"/>
<rect x="60.5" y="60.5" width="59" height="59" rx="29.5" transform="rotate(-180 60.5 60.5)" stroke="black" stroke-linecap="round" stroke-linejoin="round"/>
</svg>
