<svg width="60" height="60" viewBox="0 0 60 60" fill="none" xmlns="http://www.w3.org/2000/svg">
<path d="M30 60C46.5685 60 60 46.5685 60 30C60 13.4315 46.5685 0 30 0C13.4315 0 0 13.4315 0 30C0 46.5685 13.4315 60 30 60Z" fill="#FFDC3C" stroke="black" stroke-width="0.7" stroke-miterlimit="10"/>
<path d="M13.2522 31.7021C13.2522 31.7021 13.0798 42.5097 14.2873 48.8697C17.2473 48.4166 20.0993 47.4252 22.7022 45.9446C26.8122 43.5446 13.2522 31.7021 13.2522 31.7021Z" fill="#212020" stroke="black" stroke-width="0.7" stroke-miterlimit="10"/>
<path d="M30 60.0003C35.1646 60.0073 40.2426 58.6738 44.7374 56.1303C44.4024 54.5053 43.567 53.026 42.3483 51.9002C41.1296 50.7743 39.5889 50.0583 37.9426 49.8528L24.2175 48.1502C22.0501 47.8806 19.857 48.3825 18.0225 49.5678C17.1719 50.1213 16.4727 50.8783 15.9882 51.7701C15.5037 52.6618 15.2491 53.6604 15.2476 54.6753V56.1152C19.7455 58.6662 24.829 60.0049 30 60.0003Z" fill="white" stroke="black" stroke-width="0.7" stroke-miterlimit="10" stroke-linecap="round"/>
<path d="M29.5208 51.7883C28.578 51.7883 27.6736 51.4137 27.007 50.747C26.3403 50.0803 25.9658 49.1761 25.9658 48.2333V45.9833C25.9658 45.7466 26.0597 45.5196 26.2271 45.3522C26.3945 45.1848 26.6216 45.0908 26.8583 45.0908L30.9232 45.6758C31.4332 45.6758 32.8057 45.4883 32.8057 45.9758V48.4508C32.8117 49.3287 32.4692 50.1732 31.8534 50.7989C31.2375 51.4246 30.3987 51.7803 29.5208 51.7883Z" fill="white" stroke="black" stroke-width="0.7" stroke-miterlimit="10" stroke-linecap="round"/>
<path d="M29.2425 48.952H28.0201C24.1048 48.952 20.3497 47.3971 17.5805 44.6293C14.8113 41.8615 13.2544 38.1072 13.2524 34.1919V29.2194C13.2544 25.3041 14.8113 21.5499 17.5805 18.782C20.3497 16.0142 24.1048 14.4595 28.0201 14.4595H29.2425C37.395 14.4595 39.3675 21.0819 39.3675 29.2344L44.0024 34.1919C44.0024 36.1302 43.6207 38.0496 42.8789 39.8404C42.1371 41.6311 41.0499 43.2583 39.6793 44.6288C38.3087 45.9994 36.6817 47.0867 34.8909 47.8284C33.1002 48.5702 31.1808 48.952 29.2425 48.952Z" fill="white" stroke="black" stroke-width="0.7" stroke-miterlimit="10" stroke-linecap="round"/>
<path d="M12.397 28.7693C12.397 28.7693 20.2944 30.8317 35.7594 30.3142C36.8507 36.8167 36.9947 43.443 36.187 49.9868C36.187 49.9868 45.187 49.5518 49.327 45.9443C49.327 45.9443 54.997 15.5468 34.552 12.9443C34.552 12.9668 13.942 9.01428 12.397 28.7693Z" fill="#212020" stroke="black" stroke-width="0.7" stroke-miterlimit="10"/>
<path d="M18.2322 36.8251C17.8782 36.7828 17.552 36.6121 17.3156 36.3452C17.0791 36.0784 16.949 35.734 16.9497 35.3775V33.3376C16.955 33.1325 17.0023 32.9307 17.0887 32.7447C17.1751 32.5586 17.2987 32.3922 17.452 32.2559C17.6052 32.1195 17.7849 32.016 17.9797 31.9518C18.1745 31.8876 18.3804 31.8641 18.5847 31.8826C18.9361 31.934 19.2578 32.1084 19.4927 32.3749C19.7275 32.6413 19.8602 32.9825 19.8671 33.3376V35.3775C19.8608 35.582 19.8128 35.783 19.726 35.9681C19.6391 36.1533 19.5153 36.3187 19.3621 36.4543C19.209 36.5899 19.0298 36.6927 18.8355 36.7565C18.6412 36.8203 18.4359 36.8436 18.2322 36.8251Z" fill="#212020"/>
<path d="M27.3377 37.68C26.983 37.6393 26.6559 37.469 26.4192 37.2018C26.1825 36.9346 26.0529 36.5894 26.0552 36.2325V34.2C26.0548 33.9941 26.0982 33.7905 26.1823 33.6026C26.2664 33.4147 26.3894 33.2469 26.5432 33.1101C26.697 32.9732 26.8781 32.8706 27.0746 32.8089C27.271 32.7473 27.4782 32.728 27.6826 32.7524C28.038 32.793 28.3661 32.9631 28.604 33.2301C28.842 33.4971 28.9731 33.8423 28.9726 34.2V36.24C28.9721 36.4459 28.9278 36.6494 28.8428 36.837C28.7578 37.0245 28.6339 37.192 28.4793 37.3281C28.3248 37.4642 28.1431 37.566 27.9463 37.6266C27.7495 37.6873 27.542 37.7055 27.3377 37.68Z" fill="#212020"/>
<path d="M35.5649 35.3627C35.8615 34.8554 36.2979 34.444 36.822 34.178C37.346 33.9121 37.9355 33.8026 38.5201 33.8627C40.2076 34.1402 41.3026 36.0677 40.9576 38.1752C40.6126 40.2827 38.9775 41.7677 37.29 41.4977C36.6412 41.3857 36.0565 41.0386 35.6475 40.5227" fill="white"/>
<path d="M35.5649 35.3627C35.8615 34.8554 36.2979 34.444 36.822 34.178C37.346 33.9121 37.9355 33.8026 38.5201 33.8627C40.2076 34.1402 41.3026 36.0677 40.9576 38.1752C40.6126 40.2827 38.9775 41.7677 37.29 41.4977C36.6412 41.3857 36.0565 41.0386 35.6475 40.5227" stroke="black" stroke-width="0.7" stroke-miterlimit="10" stroke-linecap="round"/>
<path d="M35.8131 54.6369C35.474 55.3377 35.3045 56.1085 35.3182 56.8869L35.3705 59.4969C38.7778 58.8838 42.052 57.6808 45.0456 55.9419C44.845 54.7882 44.2376 53.7445 43.3336 53.0001C42.4296 52.2557 41.2889 51.8599 40.1181 51.8844" fill="white"/>
<path d="M35.8131 54.6369C35.474 55.3377 35.3045 56.1085 35.3182 56.8869L35.3705 59.4969C38.7778 58.8838 42.052 57.6808 45.0456 55.9419C44.845 54.7882 44.2376 53.7445 43.3336 53.0001C42.4296 52.2557 41.2889 51.8599 40.1181 51.8844V51.8844" stroke="black" stroke-width="0.7" stroke-miterlimit="10" stroke-linecap="round"/>
<path d="M21.2021 38.2198C21.7367 38.4597 22.3297 38.5378 22.9081 38.4445C23.4866 38.3513 24.0252 38.0906 24.4572 37.6948" stroke="black" stroke-width="0.7" stroke-linecap="round" stroke-linejoin="round"/>
</svg>
