<svg width="62" height="62" viewBox="0 0 62 62" fill="none" xmlns="http://www.w3.org/2000/svg">
<path d="M31 61C47.5685 61 61 47.5685 61 31C61 14.4315 47.5685 0.999996 31 0.999996C14.4315 0.999996 1 14.4315 1 31C1 47.5685 14.4315 61 31 61Z" fill="#363438" stroke="black" stroke-miterlimit="10"/>
<path d="M31 61C47.5685 61 61 47.5685 61 31C61 14.4315 47.5685 0.999996 31 0.999996C14.4315 0.999996 1 14.4315 1 31C1 47.5685 14.4315 61 31 61Z" fill="#363438" stroke="black" stroke-miterlimit="10"/>
<path d="M42.2124 50.5526C40.417 49.3887 38.2678 48.8972 36.1449 49.1651L22.7049 50.8301C21.0886 51.0328 19.5765 51.7374 18.3818 52.8447C17.187 53.952 16.3697 55.4063 16.0449 57.0026C20.5919 59.6263 25.7502 61.0051 30.9999 61C35.8527 61.0048 40.6334 59.8257 44.9274 57.5651V55.555C44.9291 54.5607 44.6815 53.5818 44.2072 52.7079C43.7329 51.834 43.0471 51.093 42.2124 50.5526Z" fill="#333333" stroke="black" stroke-width="0.85" stroke-linecap="round" stroke-linejoin="round"/>
<path d="M24.3774 47.6199C24.3774 47.6199 22.1274 50.5449 25.8774 51.6549C29.6274 52.7649 32.5449 51.7524 31.4724 49.6374C30.3999 47.5224 24.3774 47.6199 24.3774 47.6199Z" fill="#0F0F0F" stroke="black" stroke-width="0.85" stroke-linecap="round" stroke-linejoin="round"/>
<path d="M35.6126 48.625C35.6126 48.625 36.8876 50.1625 35.5151 51.3925C34.1426 52.6225 33.4675 53.215 33.3325 54.505C32.3809 53.4812 31.0746 52.8588 29.68 52.765C27.085 52.435 27.7075 51.73 27.7075 51.73V46.9675L35.6126 48.625Z" fill="white" stroke="black" stroke-width="0.85" stroke-linecap="round" stroke-linejoin="round"/>
<path d="M33.3099 54.745C33.3099 54.745 33.5349 52.06 34.7124 51.115C35.0639 50.7815 35.3293 50.3678 35.4861 49.9094C35.6428 49.4509 35.6861 48.9614 35.6124 48.4825C35.7682 48.3214 35.9606 48.2005 36.1732 48.1299C36.3859 48.0594 36.6125 48.0415 36.8336 48.0776C37.0547 48.1137 37.2638 48.2028 37.4429 48.3373C37.6221 48.4718 37.7661 48.6478 37.8624 48.85C37.8624 48.85 38.3575 50.2375 36.4675 51.3925C34.5775 52.5475 33.5274 52.9525 33.3099 54.745Z" fill="#333333" stroke="black" stroke-width="0.85" stroke-linecap="round" stroke-linejoin="round"/>
<path d="M31.825 50.1999C39.655 50.3499 46.75 43.84 46.75 35.7475V30.3475C46.75 22.2325 40.3375 15.4825 32.5 15.3475L30.9175 16.99C23.0875 16.8475 16.6675 21.6775 16.6675 29.74V35.1325C16.69 43.3075 23.98 50.0574 31.825 50.1999Z" fill="white" stroke="black" stroke-width="0.85" stroke-linecap="round" stroke-linejoin="round"/>
<path d="M47.5899 30.0775C46.0899 10.0825 27.2575 13.9675 27.2575 13.9675C16.375 16.69 12.805 24.295 13.7575 33.22C14.074 35.1783 14.6229 37.0917 15.3924 38.92C17.3949 43.2025 20.3949 44.545 20.3949 44.545C19.8137 42.4349 19.7647 40.2137 20.2524 38.08C20.2524 38.08 19.5624 31.2025 21.8124 33.04C23.6124 34.195 23.4474 38.29 23.4474 38.29C23.4474 38.29 23.6575 36.2875 24.31 35.47C24.9625 34.6525 26.4775 33.8125 30.82 33.4375C35.1625 33.0625 36.325 30.8875 36.325 30.8875C36.5408 31.3289 36.6706 31.8074 36.7074 32.2975C39.7074 30.7975 39.6325 26.17 39.6325 26.17C39.6325 26.17 40.6675 29.8225 39.91 31.75C39.91 31.75 41.41 30.7825 41.32 29.5C42.1049 30.59 43.0867 31.5236 44.2149 32.2525C45.7974 33.145 46.7499 33.3775 46.7499 34.345C47.4622 33.0265 47.7552 31.522 47.5899 30.0325V30.0775Z" fill="#212020" stroke="black" stroke-width="0.85" stroke-linecap="round" stroke-linejoin="round"/>
<path d="M21.9849 34.405C21.6763 33.849 21.211 33.396 20.6469 33.1026C20.0828 32.8092 19.4448 32.6884 18.8124 32.755C17.0049 33.055 15.8124 35.1925 16.2024 37.5325C16.5924 39.8725 18.3249 41.5149 20.1324 41.2074C20.8332 41.0826 21.462 40.7 21.8949 40.135" fill="white"/>
<path d="M21.9849 34.405C21.6763 33.849 21.211 33.396 20.6469 33.1026C20.0828 32.8092 19.4448 32.6884 18.8124 32.755C17.0049 33.055 15.8124 35.1925 16.2024 37.5325C16.5924 39.8725 18.3249 41.5149 20.1324 41.2074C20.8332 41.0826 21.462 40.7001 21.8949 40.135" stroke="black" stroke-width="0.85" stroke-linecap="round" stroke-linejoin="round"/>
<path d="M42.01 38.0575C42.3574 38.017 42.6777 37.8502 42.9101 37.5888C43.1424 37.3274 43.2705 36.9897 43.27 36.64V34.6449C43.2704 34.442 43.2277 34.2413 43.1447 34.0562C43.0618 33.871 42.9404 33.7056 42.7886 33.5708C42.6369 33.4361 42.4582 33.3352 42.2645 33.2747C42.0708 33.2142 41.8665 33.1956 41.665 33.22C41.317 33.2622 40.9966 33.4305 40.7644 33.6932C40.5322 33.9558 40.4043 34.2944 40.405 34.6449V36.64C40.4057 36.8423 40.4492 37.0422 40.5326 37.2264C40.6161 37.4107 40.7376 37.5752 40.8893 37.7091C41.0409 37.843 41.2191 37.9433 41.4123 38.0034C41.6055 38.0634 41.8092 38.0818 42.01 38.0575Z" fill="black"/>
<path d="M33.0926 38.9125C33.4406 38.8703 33.761 38.7019 33.9932 38.4392C34.2254 38.1766 34.3533 37.838 34.3526 37.4875V35.4924C34.353 35.2895 34.3103 35.0888 34.2273 34.9037C34.1443 34.7185 34.0229 34.5531 33.8711 34.4183C33.7194 34.2836 33.5407 34.1827 33.347 34.1222C33.1533 34.0617 32.949 34.0431 32.7475 34.0675C32.3995 34.1097 32.0791 34.278 31.8469 34.5407C31.6147 34.8033 31.4868 35.1419 31.4876 35.4924V37.4875C31.4871 37.6904 31.5298 37.8911 31.6128 38.0762C31.6958 38.2614 31.8172 38.4269 31.9689 38.5617C32.1207 38.6964 32.2993 38.7972 32.493 38.8577C32.6867 38.9182 32.8911 38.9369 33.0926 38.9125Z" fill="black"/>
<path d="M46.3825 50.8075C45.1207 50.9684 43.9745 51.6235 43.1954 52.629C42.4163 53.6345 42.0682 54.908 42.2275 56.17L42.4375 57.82C42.4774 58.1157 42.5453 58.407 42.64 58.69C45.775 57.3657 48.6613 55.5167 51.175 53.2225C50.7075 52.3884 50.0016 51.7129 49.1478 51.2826C48.2939 50.8524 47.331 50.6869 46.3825 50.8075Z" fill="white" stroke="black" stroke-width="0.85" stroke-linecap="round" stroke-linejoin="round"/>
<path d="M46.7725 48.1374L37.105 49.75L39.64 58.975C39.64 59.2075 39.925 59.3875 40.3075 59.515C42.7631 58.7114 45.1049 57.5948 47.275 56.1925L46.7725 48.1374Z" fill="#D0B48C" stroke="black" stroke-width="0.85" stroke-linecap="round" stroke-linejoin="round"/>
<path d="M42.3775 52.69C44.6875 52.3075 46.6 51.52 47.335 50.7325L47.7775 54.9776C47.9125 55.8026 45.955 56.8151 43.3975 57.2276C40.84 57.6401 38.6575 57.3326 38.5225 56.4776L37.4125 52.5625C39.0363 52.9815 40.7343 53.0252 42.3775 52.69Z" fill="#473424" stroke="black" stroke-width="0.85" stroke-linecap="round" stroke-linejoin="round"/>
<path d="M47.2975 48.1075C47.455 49.06 45.19 50.2375 42.235 50.725C39.28 51.2125 36.76 50.845 36.6025 49.8925L36.415 48.79L47.1175 47.005L47.2975 48.1075Z" fill="#D0B48C" stroke="black" stroke-width="0.85" stroke-linecap="round" stroke-linejoin="round"/>
<path d="M42.0561 49.6301C45.0101 49.1373 47.2754 47.9629 47.116 47.0068C46.9565 46.0508 44.4326 45.6752 41.4786 46.168C38.5247 46.6607 36.2593 47.8351 36.4188 48.7912C36.5782 49.7472 39.1022 50.1228 42.0561 49.6301Z" fill="white" stroke="black" stroke-width="0.85" stroke-linecap="round" stroke-linejoin="round"/>
<path d="M46.5549 47.9724C45.2022 48.862 43.662 49.4268 42.0549 49.6225C39.8499 49.99 37.8849 49.8774 36.9624 49.3974C37.3599 48.6474 39.2124 47.7774 41.4624 47.3949C43.9899 46.9824 46.1274 47.2449 46.5549 47.9724Z" fill="#D0B48C"/>
<path opacity="0.6" d="M42.28 48.655C42.5545 48.6384 42.8169 48.5361 43.03 48.3625L43.5025 49.1575C43.5025 49.1575 43.5025 49.2625 42.7525 49.3825C42.16 49.4725 41.95 49.495 41.89 49.3825L41.4475 48.6325C41.7203 48.6989 42.0041 48.7066 42.28 48.655Z" fill="white" stroke="black" stroke-width="0.85" stroke-linecap="round" stroke-linejoin="round"/>
<path d="M42.0561 49.6301C45.0101 49.1373 47.2754 47.9629 47.116 47.0068C46.9565 46.0508 44.4326 45.6752 41.4786 46.168C38.5247 46.6607 36.2593 47.8351 36.4188 48.7912C36.5782 49.7472 39.1022 50.1228 42.0561 49.6301Z" stroke="black" stroke-width="0.85" stroke-linecap="round" stroke-linejoin="round"/>
<path d="M42.5499 47.455C42.5499 47.455 42.6774 47.755 41.8749 47.875C41.2824 47.965 40.9674 47.7925 40.9074 47.665L38.2 42.58L39.5724 41.9125L42.5499 47.455Z" fill="white" stroke="black" stroke-width="0.85" stroke-linecap="round" stroke-linejoin="round"/>
<path d="M38.9196 42.4545C39.2994 42.2694 39.5587 42.0196 39.4988 41.8968C39.4389 41.7739 39.0824 41.8244 38.7027 42.0096C38.3229 42.1947 38.0636 42.4444 38.1235 42.5672C38.1834 42.6901 38.5398 42.6397 38.9196 42.4545Z" fill="white" stroke="black" stroke-width="0.85" stroke-linecap="round" stroke-linejoin="round"/>
<path d="M37.2101 54.3851L36.1075 55.6301C35.5579 56.2551 35.1806 57.0124 35.0126 57.8276L31.1125 60.9925C36.1798 60.9898 41.1633 59.6994 45.595 57.2425C45.5001 55.9937 44.9215 54.8313 43.9825 54.0026C43.0333 53.1561 41.787 52.7209 40.5172 52.7926C39.2474 52.8643 38.0579 53.4371 37.2101 54.3851Z" fill="white" stroke="black" stroke-width="0.85" stroke-linecap="round" stroke-linejoin="round"/>
<path d="M34.0449 58.2025C33.4074 58.2025 32.9124 59.455 32.8374 59.5375C32.7624 59.62 33.2799 60.085 33.9399 60.85C34.7499 60.775 35.5524 60.655 36.3474 60.5125C35.5449 59.5825 34.6374 58.21 34.0449 58.2025Z" fill="#333333" stroke="black" stroke-width="0.85" stroke-linecap="round" stroke-linejoin="round"/>
<path d="M18.76 52.765C17.9594 53.1349 17.2649 53.7005 16.7406 54.4097C16.2163 55.1188 15.879 55.9487 15.76 56.8225C19.4278 58.9986 23.52 60.3618 27.76 60.82L24.985 55.33C24.6674 54.6186 24.1839 53.9936 23.575 53.5075" fill="#333333"/>
<path d="M18.76 52.765C17.9594 53.1349 17.2649 53.7005 16.7406 54.4097C16.2163 55.1188 15.879 55.9487 15.76 56.8225C19.4278 58.9986 23.52 60.3618 27.76 60.82L24.985 55.33C24.6674 54.6186 24.1839 53.9936 23.575 53.5075" stroke="black" stroke-width="0.85" stroke-linecap="round" stroke-linejoin="round"/>
<path d="M32.8374 58.5625C32.3349 58.2025 31.3374 59.3651 31.3374 59.3651L29.8374 60.9701C30.2199 60.9701 30.5874 60.9701 30.9999 60.9701C32.158 60.9683 33.315 60.8982 34.4649 60.7601C33.9679 59.9949 33.4244 59.261 32.8374 58.5625Z" fill="#333333" stroke="black" stroke-width="0.85" stroke-linecap="round" stroke-linejoin="round"/>
<path d="M33.31 54.745C33.31 54.745 32.815 52.78 29.56 51.955C26.305 51.13 25.195 49.4425 25.405 48.6475C24.1385 47.9722 22.9533 47.1544 21.8725 46.21C21.8725 46.21 20.755 46.375 20.8 47.8975C20.8 47.8975 18.745 49.825 19.0525 52.195C19.0525 52.195 21.19 50.2375 24.7375 52.195C28.285 54.1525 30.6325 52.5775 33.31 54.745Z" fill="#333333" stroke="black" stroke-width="0.85" stroke-linecap="round" stroke-linejoin="round"/>
<path d="M45.6324 36.205C45.6324 38.2675 44.5149 40.1199 42.4599 40.4499C40.4049 40.7799 39.3099 39.2875 39.3099 37.2325C39.3099 36.94 39.3099 36.5725 39.3099 36.2275C39.3252 35.9348 39.4386 35.6557 39.6318 35.4353C39.825 35.2149 40.0868 35.0659 40.3749 35.0124L44.5449 34.3375C44.6725 34.3093 44.8048 34.3102 44.9319 34.3401C45.0591 34.3701 45.1779 34.4283 45.2794 34.5104C45.381 34.5926 45.4628 34.6966 45.5187 34.8147C45.5746 34.9327 45.6033 35.0619 45.6024 35.1925C45.6324 35.5375 45.6324 35.9125 45.6324 36.205Z" stroke="black" stroke-width="0.85" stroke-linecap="round" stroke-linejoin="round"/>
<path d="M36.745 37.3824C36.745 39.4374 35.635 41.2899 33.5725 41.6274C31.51 41.9649 30.4225 40.4649 30.4225 38.4024C30.4225 38.1099 30.4225 37.7424 30.4225 37.3974C30.4361 37.1054 30.548 36.8265 30.7399 36.606C30.9318 36.3854 31.1926 36.2362 31.48 36.1824L35.65 35.5074C35.7774 35.4807 35.9092 35.4828 36.0358 35.5133C36.1623 35.5438 36.2805 35.6021 36.3817 35.6839C36.4829 35.7658 36.5647 35.8691 36.6211 35.9864C36.6774 36.1038 36.7069 36.2322 36.7075 36.3624C36.7375 36.7074 36.745 37.0824 36.745 37.3824Z" stroke="black" stroke-width="0.85" stroke-linecap="round" stroke-linejoin="round"/>
<path d="M36.745 37.3825C37.1139 37.1293 37.5449 36.9815 37.9916 36.9551C38.4383 36.9287 38.8838 37.0246 39.28 37.2325" fill="white"/>
<path d="M36.745 37.3825C37.1139 37.1293 37.5449 36.9815 37.9916 36.9551C38.4383 36.9287 38.8838 37.0246 39.28 37.2325" stroke="black" stroke-width="0.85" stroke-linecap="round" stroke-linejoin="round"/>
<path d="M30.43 38.08L29.17 38.3275L22.165 33.4525" fill="white"/>
<path d="M30.43 38.08L29.17 38.3275L22.165 33.4525" stroke="black" stroke-width="0.85" stroke-linecap="round" stroke-linejoin="round"/>
<path d="M45.595 35.65L47.1175 35.2675" stroke="black" stroke-width="0.85" stroke-linecap="round" stroke-linejoin="round"/>
<path d="M31 61C47.5685 61 61 47.5685 61 31C61 14.4315 47.5685 0.999996 31 0.999996C14.4315 0.999996 1 14.4315 1 31C1 47.5685 14.4315 61 31 61Z" stroke="black" stroke-miterlimit="10"/>
</svg>
